<svg width="60" height="60" viewBox="0 0 60 60" fill="none" xmlns="http://www.w3.org/2000/svg">
<path d="M30 5.09998C16.25 5.09998 5 16.325 5 30.15C5 42.65 14.15 53.025 26.1 54.9V37.4H19.75V30.15H26.1V24.625C26.1 18.35 29.825 14.9 35.55 14.9C38.275 14.9 41.125 15.375 41.125 15.375V21.55H37.975C34.875 21.55 33.9 23.475 33.9 25.45V30.15H40.85L39.725 37.4H33.9V54.9C39.7911 53.9696 45.1555 50.9638 49.0248 46.4251C52.8941 41.8865 55.0134 36.1141 55 30.15C55 16.325 43.75 5.09998 30 5.09998Z" fill="#5000E0"/>
</svg>
