<svg xmlns="http://www.w3.org/2000/svg" xmlns:xlink="http://www.w3.org/1999/xlink" width="500" zoomAndPan="magnify" viewBox="0 0 375 374.999991" height="500" preserveAspectRatio="xMidYMid meet" version="1.0"><defs><clipPath id="34ab8e1826"><path d="M 0 37.5 L 375 37.5 L 375 355 L 0 355 Z M 0 37.5 " clip-rule="nonzero"/></clipPath></defs><g clip-path="url(#34ab8e1826)"><path fill="#433f25" d="M 361.289062 85.628906 C 361.289062 70.117188 295.480469 48.496094 188.296875 48.496094 C 81.117188 48.496094 15.265625 70.117188 15.265625 85.628906 C 15.265625 101.101562 81.117188 122.742188 188.296875 122.742188 C 295.480469 122.742188 361.289062 101.101562 361.289062 85.628906 Z M 361.289062 135.757812 L 361.289062 103.285156 C 306.375 143.914062 70.179688 143.914062 15.265625 103.285156 L 15.265625 134.589844 C 24.71875 147.519531 43.8125 155.171875 57.546875 159.875 C 83.617188 168.734375 114.097656 172.972656 153.476562 173.25 C 209.515625 173.652344 300.695312 178.78125 349.167969 145.378906 L 350.417969 144.574219 C 358.300781 139.253906 360.65625 136.816406 361.289062 135.757812 Z M 361.289062 304.636719 L 361.289062 248.425781 L 348.382812 239.652344 C 333.800781 247.367188 316.378906 253.132812 294.335938 257.519531 C 263.347656 263.644531 232.109375 265.109375 200.421875 265.109375 C 143.789062 265.109375 77.703125 264.746094 27.980469 239.84375 L 15.265625 248.425781 L 15.265625 303.40625 C 63.546875 354.824219 231.707031 345.773438 278.417969 337.996094 C 305.71875 333.417969 327.570312 326.042969 345.246094 315.488281 L 346.816406 314.554688 C 357.285156 308.515625 360.378906 305.757812 361.289062 304.636719 Z M 365.679688 214.535156 L 365.679688 162.3125 L 356.777344 153.601562 C 315.042969 181.558594 254.851562 184.820312 204.640625 184.820312 C 147.859375 184.820312 64.839844 186.515625 19.503906 153.878906 L 10.878906 162.3125 L 10.878906 213.371094 C 49.386719 262.585938 231.113281 258.75 292.175781 246.625 C 318.308594 241.453125 337.59375 234.355469 352.8125 224.265625 L 354.148438 223.417969 C 362.414062 218.117188 364.9375 215.617188 365.679688 214.535156 Z M 376.742188 157.648438 L 376.742188 215.214844 C 376.742188 220.980469 370.660156 226.003906 360.105469 232.742188 L 358.9375 233.484375 L 372.355469 242.515625 L 372.355469 305.527344 C 372.355469 310.867188 367.289062 315.574219 352.304688 324.15625 L 350.925781 324.941406 C 308.683594 350.246094 248.214844 354.71875 198.917969 354.71875 C 139.148438 354.71875 43.304688 352.832031 4.199219 307.539062 L 4.199219 242.515625 L 17.277344 233.695312 C 6.722656 226.703125 2.441406 220.664062 -0.1875 216.972656 L -0.1875 157.648438 L 11.066406 146.628906 C 7.78125 143.324219 6.363281 141.203125 4.199219 137.960938 L 4.199219 85.628906 C 4.199219 53.988281 96.800781 37.433594 188.296875 37.433594 C 279.753906 37.433594 372.355469 53.988281 372.355469 85.628906 C 372.355469 142.15625 374.429688 139.484375 365.804688 146.925781 L 376.742188 157.648438 " fill-opacity="1" fill-rule="nonzero"/></g><path fill="#f3e68a" d="M 76.644531 301.03125 L 77.28125 290.03125 C 48.457031 288.273438 33.703125 273.839844 33.554688 273.648438 C 28.722656 278.4375 30.523438 276.703125 25.671875 281.449219 C 26.371094 282.128906 43.304688 299.0625 76.644531 301.03125 Z M 352.070312 281.449219 L 344.1875 273.691406 C 344.058594 273.839844 329.5625 288.273438 300.460938 290.03125 L 301.097656 301.03125 C 334.414062 299.0625 351.371094 282.128906 352.070312 281.449219 Z M 361.289062 248.425781 L 361.289062 304.636719 C 360.378906 305.757812 357.285156 308.515625 346.816406 314.554688 L 345.246094 315.488281 C 327.570312 326.042969 305.71875 333.417969 278.417969 337.996094 C 231.707031 345.773438 63.546875 354.824219 15.265625 303.40625 L 15.265625 248.425781 L 27.980469 239.84375 C 77.703125 264.746094 143.789062 265.109375 200.421875 265.109375 C 232.109375 265.109375 263.347656 263.644531 294.335938 257.519531 C 316.378906 253.132812 333.800781 247.367188 348.382812 239.652344 L 361.289062 248.425781 " fill-opacity="1" fill-rule="nonzero"/><path fill="#f3e68a" d="M 91.207031 151.800781 L 91.90625 140.738281 C 63.078125 138.976562 48.285156 124.542969 48.136719 124.394531 C 43.347656 129.144531 45.148438 127.40625 40.253906 132.152344 C 40.996094 132.894531 57.910156 149.765625 91.207031 151.800781 Z M 337.445312 132.152344 L 329.5625 124.394531 C 329.433594 124.542969 314.9375 138.976562 285.835938 140.738281 L 286.496094 151.800781 C 319.792969 149.765625 336.769531 132.894531 337.445312 132.152344 Z M 361.289062 103.285156 L 361.289062 135.757812 C 360.65625 136.816406 358.300781 139.253906 350.417969 144.574219 L 349.167969 145.378906 C 300.695312 178.78125 209.515625 173.652344 153.476562 173.25 C 114.097656 172.972656 83.617188 168.734375 57.546875 159.875 C 43.8125 155.171875 24.71875 147.519531 15.265625 134.589844 L 15.265625 103.285156 C 70.179688 143.914062 306.375 143.914062 361.289062 103.285156 " fill-opacity="1" fill-rule="nonzero"/><path fill="#433f25" d="M 344.1875 273.691406 L 352.070312 281.449219 C 351.371094 282.128906 334.414062 299.0625 301.097656 301.03125 L 300.460938 290.03125 C 329.5625 288.273438 344.058594 273.839844 344.1875 273.691406 " fill-opacity="1" fill-rule="nonzero"/><path fill="#433f25" d="M 338.929688 190.035156 L 346.816406 197.835938 C 346.113281 198.515625 329.160156 215.449219 295.863281 217.417969 L 295.207031 206.417969 C 323.988281 204.660156 338.78125 190.164062 338.929688 190.035156 " fill-opacity="1" fill-rule="nonzero"/><path fill="#433f25" d="M 329.5625 124.394531 L 337.445312 132.152344 C 336.769531 132.894531 319.792969 149.765625 286.496094 151.800781 L 285.835938 140.738281 C 314.9375 138.976562 329.433594 124.542969 329.5625 124.394531 " fill-opacity="1" fill-rule="nonzero"/><path fill="#433f25" d="M 297.367188 85.628906 C 260.382812 73.570312 116.128906 73.570312 79.1875 85.628906 C 116.171875 97.691406 260.425781 97.648438 297.367188 85.628906 Z M 272.652344 69.796875 C 305.527344 73.847656 312.183594 78.890625 312.183594 85.628906 C 312.183594 92.390625 305.527344 97.371094 272.652344 101.441406 C 225.941406 107.207031 150.613281 107.207031 103.945312 101.441406 C 71.027344 97.371094 64.414062 92.390625 64.414062 85.628906 C 64.414062 60.578125 225.664062 63.992188 272.652344 69.796875 " fill-opacity="1" fill-rule="nonzero"/><path fill="#f3e68a" d="M 79.1875 85.628906 C 116.128906 73.570312 260.382812 73.570312 297.367188 85.628906 C 260.425781 97.648438 116.171875 97.691406 79.1875 85.628906 " fill-opacity="1" fill-rule="nonzero"/><path fill="#433f25" d="M 91.90625 140.738281 L 91.207031 151.800781 C 57.910156 149.765625 40.996094 132.894531 40.253906 132.152344 C 45.148438 127.40625 43.347656 129.144531 48.136719 124.394531 C 48.285156 124.542969 63.078125 138.976562 91.90625 140.738281 " fill-opacity="1" fill-rule="nonzero"/><path fill="#433f25" d="M 82.558594 206.417969 L 81.902344 217.417969 C 48.5625 215.449219 31.625 198.515625 30.949219 197.835938 C 35.78125 193.046875 33.980469 194.824219 38.832031 190.035156 C 38.960938 190.164062 53.734375 204.660156 82.558594 206.417969 " fill-opacity="1" fill-rule="nonzero"/><path fill="#433f25" d="M 77.28125 290.03125 L 76.644531 301.03125 C 43.304688 299.0625 26.371094 282.128906 25.671875 281.449219 C 30.523438 276.703125 28.722656 278.4375 33.554688 273.648438 C 33.703125 273.839844 48.457031 288.273438 77.28125 290.03125 " fill-opacity="1" fill-rule="nonzero"/></svg>