<svg width="450" height="258" viewBox="0 0 450 258" fill="none" xmlns="http://www.w3.org/2000/svg">
<path d="M99 49.5454V46.5454H96V43.5454H93V34.5454H96V31.5454H99V28.5454H111V31.5454H114V34.5454H108V31.5454H102V34.5454H99V43.5454H102V46.5454H108V43.5454H114V46.5454H111V49.5454H99ZM120 49.5454V46.5454H117V37.5454H120V34.5454H135V37.5454H138V46.5454H135V49.5454H120ZM123 46.5454H132V37.5454H123V46.5454ZM141 49.5454V34.5454H159V37.5454H162V49.5454H156V37.5454H147V49.5454H141ZM174 49.5454V37.5454H168V34.5454H174V28.5454H180V34.5454H186V37.5454H180V49.5454H174ZM192 49.5454V46.5454H189V43.5454H192V40.5454H204V37.5454H192V34.5454H207V37.5454H210V49.5454H192ZM195 46.5454H204V43.5454H195V46.5454ZM222 49.5454V37.5454H216V34.5454H222V28.5454H228V34.5454H234V37.5454H228V49.5454H222ZM240 49.5454V46.5454H237V37.5454H240V34.5454H255V37.5454H258V43.5454H243V46.5454H255V49.5454H240ZM243 40.5454H252V37.5454H243V40.5454ZM264 40.5454V37.5454H282V40.5454H264ZM285 49.5454V34.5454H303V37.5454H306V49.5454H300V37.5454H291V49.5454H285ZM312 49.5454V46.5454H309V37.5454H312V34.5454H327V37.5454H330V46.5454H327V49.5454H312ZM315 46.5454H324V37.5454H315V46.5454ZM333 49.5454V46.5454H348V43.5454H336V40.5454H333V37.5454H336V34.5454H351V37.5454H339V40.5454H351V43.5454H354V46.5454H351V49.5454H333Z" fill="#B6AE1E"/>
<path d="M98.3248 97V111.545H96.6202L88.6941 100.125H88.552V111.545H86.7907V97H88.4952L96.4498 108.449H96.5918V97H98.3248ZM104.832 111.801C104.141 111.801 103.514 111.671 102.95 111.41C102.387 111.145 101.939 110.764 101.608 110.267C101.276 109.765 101.111 109.159 101.111 108.449C101.111 107.824 101.234 107.317 101.48 106.929C101.726 106.536 102.055 106.228 102.467 106.006C102.879 105.783 103.334 105.617 103.831 105.508C104.333 105.395 104.837 105.305 105.344 105.239C106.006 105.153 106.544 105.089 106.956 105.047C107.372 104.999 107.675 104.921 107.865 104.812C108.059 104.704 108.156 104.514 108.156 104.244V104.187C108.156 103.487 107.964 102.942 107.581 102.554C107.202 102.166 106.627 101.972 105.855 101.972C105.055 101.972 104.427 102.147 103.973 102.497C103.518 102.847 103.199 103.222 103.014 103.619L101.423 103.051C101.707 102.388 102.086 101.872 102.559 101.503C103.038 101.129 103.559 100.868 104.122 100.722C104.69 100.57 105.249 100.494 105.798 100.494C106.148 100.494 106.551 100.537 107.006 100.622C107.465 100.703 107.907 100.871 108.334 101.126C108.765 101.382 109.122 101.768 109.406 102.284C109.69 102.8 109.832 103.491 109.832 104.358V111.545H108.156V110.068H108.071C107.957 110.305 107.768 110.558 107.503 110.828C107.238 111.098 106.885 111.328 106.444 111.517C106.004 111.706 105.467 111.801 104.832 111.801ZM105.088 110.295C105.751 110.295 106.309 110.165 106.764 109.905C107.223 109.644 107.569 109.308 107.801 108.896C108.038 108.484 108.156 108.051 108.156 107.597V106.062C108.085 106.148 107.929 106.226 107.687 106.297C107.451 106.363 107.176 106.422 106.863 106.474C106.556 106.522 106.255 106.564 105.961 106.602C105.673 106.635 105.438 106.664 105.258 106.687C104.823 106.744 104.416 106.837 104.037 106.964C103.663 107.088 103.36 107.275 103.128 107.526C102.9 107.772 102.787 108.108 102.787 108.534C102.787 109.116 103.002 109.557 103.433 109.855C103.869 110.149 104.42 110.295 105.088 110.295ZM103.724 99.3295L102.417 99.2727C102.417 98.5483 102.623 97.9564 103.035 97.4971C103.452 97.0331 103.966 96.8011 104.577 96.8011C104.846 96.8011 105.086 96.8484 105.294 96.9431C105.502 97.0331 105.701 97.1373 105.89 97.2556C106.08 97.374 106.274 97.4805 106.473 97.5752C106.676 97.6652 106.906 97.7102 107.162 97.7102C107.432 97.7102 107.659 97.606 107.844 97.3977C108.033 97.1846 108.128 96.9289 108.128 96.6306L109.406 96.7443C109.406 97.4829 109.198 98.07 108.781 98.5056C108.369 98.9412 107.858 99.159 107.247 99.159C106.92 99.159 106.65 99.1141 106.437 99.0241C106.224 98.9294 106.035 98.8229 105.869 98.7045C105.703 98.5861 105.528 98.482 105.344 98.392C105.159 98.2973 104.932 98.25 104.662 98.25C104.392 98.25 104.167 98.3565 103.987 98.5696C103.812 98.7779 103.724 99.0312 103.724 99.3295ZM117.323 111.773C116.338 111.773 115.474 111.538 114.731 111.07C113.992 110.601 113.415 109.945 112.998 109.102C112.586 108.259 112.38 107.275 112.38 106.148C112.38 105.011 112.586 104.019 112.998 103.172C113.415 102.324 113.992 101.666 114.731 101.197C115.474 100.729 116.338 100.494 117.323 100.494C118.308 100.494 119.17 100.729 119.909 101.197C120.652 101.666 121.23 102.324 121.642 103.172C122.058 104.019 122.267 105.011 122.267 106.148C122.267 107.275 122.058 108.259 121.642 109.102C121.23 109.945 120.652 110.601 119.909 111.07C119.17 111.538 118.308 111.773 117.323 111.773ZM117.323 110.267C118.071 110.267 118.687 110.075 119.17 109.692C119.653 109.308 120.01 108.804 120.242 108.179C120.474 107.554 120.59 106.877 120.59 106.148C120.59 105.419 120.474 104.739 120.242 104.109C120.01 103.48 119.653 102.971 119.17 102.582C118.687 102.194 118.071 102 117.323 102C116.575 102 115.96 102.194 115.477 102.582C114.994 102.971 114.636 103.48 114.404 104.109C114.172 104.739 114.056 105.419 114.056 106.148C114.056 106.877 114.172 107.554 114.404 108.179C114.636 108.804 114.994 109.308 115.477 109.692C115.96 110.075 116.575 110.267 117.323 110.267ZM134.569 111.773C133.66 111.773 132.858 111.543 132.162 111.084C131.466 110.62 130.921 109.966 130.528 109.124C130.135 108.276 129.939 107.275 129.939 106.119C129.939 104.973 130.135 103.979 130.528 103.136C130.921 102.294 131.468 101.642 132.169 101.183C132.87 100.724 133.679 100.494 134.598 100.494C135.308 100.494 135.869 100.613 136.281 100.849C136.698 101.081 137.015 101.347 137.233 101.645C137.455 101.938 137.628 102.18 137.751 102.369H137.893V97H139.569V111.545H137.95V109.869H137.751C137.628 110.068 137.453 110.319 137.226 110.622C136.998 110.92 136.674 111.188 136.253 111.425C135.831 111.657 135.27 111.773 134.569 111.773ZM134.797 110.267C135.469 110.267 136.037 110.092 136.501 109.741C136.965 109.386 137.318 108.896 137.559 108.271C137.801 107.642 137.922 106.915 137.922 106.091C137.922 105.276 137.803 104.564 137.567 103.953C137.33 103.338 136.979 102.859 136.515 102.518C136.051 102.173 135.479 102 134.797 102C134.086 102 133.495 102.182 133.021 102.547C132.552 102.907 132.2 103.397 131.963 104.017C131.731 104.633 131.615 105.324 131.615 106.091C131.615 106.867 131.733 107.573 131.97 108.207C132.211 108.837 132.567 109.339 133.035 109.713C133.509 110.082 134.096 110.267 134.797 110.267ZM147.446 111.773C146.395 111.773 145.488 111.541 144.726 111.077C143.968 110.608 143.383 109.955 142.971 109.116C142.564 108.274 142.361 107.294 142.361 106.176C142.361 105.059 142.564 104.074 142.971 103.222C143.383 102.365 143.956 101.697 144.69 101.219C145.429 100.736 146.291 100.494 147.275 100.494C147.844 100.494 148.405 100.589 148.959 100.778C149.513 100.968 150.017 101.276 150.471 101.702C150.926 102.123 151.288 102.682 151.558 103.378C151.828 104.074 151.963 104.931 151.963 105.949V106.659H143.554V105.21H150.258C150.258 104.595 150.135 104.045 149.889 103.562C149.648 103.08 149.302 102.698 148.852 102.419C148.407 102.14 147.881 102 147.275 102C146.608 102 146.03 102.166 145.542 102.497C145.059 102.824 144.688 103.25 144.427 103.776C144.167 104.301 144.037 104.865 144.037 105.466V106.432C144.037 107.256 144.179 107.954 144.463 108.527C144.752 109.095 145.152 109.528 145.663 109.827C146.175 110.12 146.769 110.267 147.446 110.267C147.886 110.267 148.284 110.205 148.639 110.082C148.999 109.955 149.309 109.765 149.569 109.514C149.83 109.258 150.031 108.941 150.173 108.562L151.792 109.017C151.622 109.566 151.336 110.049 150.933 110.466C150.531 110.878 150.033 111.2 149.442 111.432C148.85 111.659 148.184 111.773 147.446 111.773ZM154.513 111.545V100.636H156.189V111.545H154.513ZM155.365 98.8181C155.038 98.8181 154.756 98.7069 154.52 98.4843C154.288 98.2618 154.172 97.9943 154.172 97.6818C154.172 97.3693 154.288 97.1018 154.52 96.8792C154.756 96.6567 155.038 96.5454 155.365 96.5454C155.692 96.5454 155.971 96.6567 156.203 96.8792C156.44 97.1018 156.558 97.3693 156.558 97.6818C156.558 97.9943 156.44 98.2618 156.203 98.4843C155.971 98.7069 155.692 98.8181 155.365 98.8181ZM160.509 100.636L163.122 105.097L165.736 100.636H167.668L164.145 106.091L167.668 111.545H165.736L163.122 107.312L160.509 111.545H158.577L162.043 106.091L158.577 100.636H160.509ZM174.184 111.773C173.133 111.773 172.226 111.541 171.464 111.077C170.706 110.608 170.122 109.955 169.71 109.116C169.302 108.274 169.099 107.294 169.099 106.176C169.099 105.059 169.302 104.074 169.71 103.222C170.122 102.365 170.695 101.697 171.428 101.219C172.167 100.736 173.029 100.494 174.014 100.494C174.582 100.494 175.143 100.589 175.697 100.778C176.251 100.968 176.755 101.276 177.21 101.702C177.664 102.123 178.026 102.682 178.296 103.378C178.566 104.074 178.701 104.931 178.701 105.949V106.659H170.292V105.21H176.997C176.997 104.595 176.874 104.045 176.627 103.562C176.386 103.08 176.04 102.698 175.59 102.419C175.145 102.14 174.62 102 174.014 102C173.346 102 172.768 102.166 172.281 102.497C171.798 102.824 171.426 103.25 171.166 103.776C170.905 104.301 170.775 104.865 170.775 105.466V106.432C170.775 107.256 170.917 107.954 171.201 108.527C171.49 109.095 171.89 109.528 172.401 109.827C172.913 110.12 173.507 110.267 174.184 110.267C174.624 110.267 175.022 110.205 175.377 110.082C175.737 109.955 176.047 109.765 176.308 109.514C176.568 109.258 176.769 108.941 176.911 108.562L178.531 109.017C178.36 109.566 178.074 110.049 177.671 110.466C177.269 110.878 176.772 111.2 176.18 111.432C175.588 111.659 174.923 111.773 174.184 111.773ZM190.995 111.773C190.086 111.773 189.284 111.543 188.588 111.084C187.892 110.62 187.347 109.966 186.954 109.124C186.561 108.276 186.365 107.275 186.365 106.119C186.365 104.973 186.561 103.979 186.954 103.136C187.347 102.294 187.894 101.642 188.595 101.183C189.295 100.724 190.105 100.494 191.024 100.494C191.734 100.494 192.295 100.613 192.707 100.849C193.124 101.081 193.441 101.347 193.659 101.645C193.881 101.938 194.054 102.18 194.177 102.369H194.319V97H195.995V111.545H194.376V109.869H194.177C194.054 110.068 193.879 110.319 193.651 110.622C193.424 110.92 193.1 111.188 192.678 111.425C192.257 111.657 191.696 111.773 190.995 111.773ZM191.222 110.267C191.895 110.267 192.463 110.092 192.927 109.741C193.391 109.386 193.744 108.896 193.985 108.271C194.227 107.642 194.347 106.915 194.347 106.091C194.347 105.276 194.229 104.564 193.992 103.953C193.756 103.338 193.405 102.859 192.941 102.518C192.477 102.173 191.904 102 191.222 102C190.512 102 189.92 102.182 189.447 102.547C188.978 102.907 188.625 103.397 188.389 104.017C188.157 104.633 188.041 105.324 188.041 106.091C188.041 106.867 188.159 107.573 188.396 108.207C188.637 108.837 188.992 109.339 189.461 109.713C189.935 110.082 190.522 110.267 191.222 110.267ZM203.872 111.773C202.82 111.773 201.914 111.541 201.151 111.077C200.394 110.608 199.809 109.955 199.397 109.116C198.99 108.274 198.786 107.294 198.786 106.176C198.786 105.059 198.99 104.074 199.397 103.222C199.809 102.365 200.382 101.697 201.116 101.219C201.855 100.736 202.716 100.494 203.701 100.494C204.269 100.494 204.83 100.589 205.384 100.778C205.938 100.968 206.443 101.276 206.897 101.702C207.352 102.123 207.714 102.682 207.984 103.378C208.254 104.074 208.389 104.931 208.389 105.949V106.659H199.98V105.21H206.684C206.684 104.595 206.561 104.045 206.315 103.562C206.073 103.08 205.728 102.698 205.278 102.419C204.833 102.14 204.307 102 203.701 102C203.034 102 202.456 102.166 201.968 102.497C201.485 102.824 201.114 103.25 200.853 103.776C200.593 104.301 200.463 104.865 200.463 105.466V106.432C200.463 107.256 200.605 107.954 200.889 108.527C201.177 109.095 201.578 109.528 202.089 109.827C202.6 110.12 203.195 110.267 203.872 110.267C204.312 110.267 204.71 110.205 205.065 110.082C205.425 109.955 205.735 109.765 205.995 109.514C206.256 109.258 206.457 108.941 206.599 108.562L208.218 109.017C208.048 109.566 207.761 110.049 207.359 110.466C206.956 110.878 206.459 111.2 205.867 111.432C205.276 111.659 204.61 111.773 203.872 111.773ZM220.995 111.773C219.972 111.773 219.092 111.531 218.353 111.048C217.615 110.565 217.046 109.9 216.649 109.053C216.251 108.205 216.052 107.237 216.052 106.148C216.052 105.04 216.256 104.062 216.663 103.214C217.075 102.362 217.648 101.697 218.382 101.219C219.12 100.736 219.982 100.494 220.967 100.494C221.734 100.494 222.425 100.636 223.041 100.92C223.656 101.205 224.16 101.602 224.553 102.114C224.946 102.625 225.19 103.222 225.285 103.903H223.609C223.481 103.406 223.197 102.966 222.757 102.582C222.321 102.194 221.734 102 220.995 102C220.342 102 219.769 102.17 219.276 102.511C218.789 102.847 218.408 103.323 218.133 103.939C217.863 104.55 217.728 105.267 217.728 106.091C217.728 106.934 217.861 107.668 218.126 108.293C218.396 108.918 218.775 109.403 219.262 109.749C219.755 110.094 220.332 110.267 220.995 110.267C221.431 110.267 221.826 110.191 222.181 110.04C222.536 109.888 222.837 109.67 223.083 109.386C223.329 109.102 223.505 108.761 223.609 108.364H225.285C225.19 109.008 224.956 109.588 224.582 110.104C224.213 110.615 223.722 111.022 223.112 111.325C222.506 111.624 221.8 111.773 220.995 111.773ZM232.167 111.773C231.182 111.773 230.318 111.538 229.575 111.07C228.836 110.601 228.258 109.945 227.842 109.102C227.43 108.259 227.224 107.275 227.224 106.148C227.224 105.011 227.43 104.019 227.842 103.172C228.258 102.324 228.836 101.666 229.575 101.197C230.318 100.729 231.182 100.494 232.167 100.494C233.152 100.494 234.014 100.729 234.752 101.197C235.496 101.666 236.073 102.324 236.485 103.172C236.902 104.019 237.11 105.011 237.11 106.148C237.11 107.275 236.902 108.259 236.485 109.102C236.073 109.945 235.496 110.601 234.752 111.07C234.014 111.538 233.152 111.773 232.167 111.773ZM232.167 110.267C232.915 110.267 233.531 110.075 234.014 109.692C234.497 109.308 234.854 108.804 235.086 108.179C235.318 107.554 235.434 106.877 235.434 106.148C235.434 105.419 235.318 104.739 235.086 104.109C234.854 103.48 234.497 102.971 234.014 102.582C233.531 102.194 232.915 102 232.167 102C231.419 102 230.803 102.194 230.32 102.582C229.838 102.971 229.48 103.48 229.248 104.109C229.016 104.739 228.9 105.419 228.9 106.148C228.9 106.877 229.016 107.554 229.248 108.179C229.48 108.804 229.838 109.308 230.32 109.692C230.803 110.075 231.419 110.267 232.167 110.267ZM241.345 104.983V111.545H239.669V100.636H241.288V102.341H241.43C241.686 101.787 242.074 101.342 242.595 101.006C243.116 100.665 243.788 100.494 244.612 100.494C245.351 100.494 245.997 100.646 246.551 100.949C247.105 101.247 247.536 101.702 247.844 102.312C248.151 102.919 248.305 103.686 248.305 104.614V111.545H246.629V104.727C246.629 103.87 246.407 103.203 245.961 102.724C245.516 102.241 244.906 102 244.129 102C243.594 102 243.116 102.116 242.694 102.348C242.278 102.58 241.949 102.919 241.707 103.364C241.466 103.809 241.345 104.348 241.345 104.983ZM253.044 104.983V111.545H251.368V97H253.044V102.341H253.186C253.442 101.777 253.825 101.33 254.337 100.999C254.853 100.662 255.539 100.494 256.396 100.494C257.14 100.494 257.791 100.643 258.35 100.942C258.908 101.235 259.342 101.687 259.649 102.298C259.962 102.904 260.118 103.676 260.118 104.614V111.545H258.442V104.727C258.442 103.861 258.217 103.191 257.767 102.717C257.322 102.239 256.704 102 255.914 102C255.364 102 254.872 102.116 254.436 102.348C254.005 102.58 253.664 102.919 253.414 103.364C253.167 103.809 253.044 104.348 253.044 104.983ZM267.758 111.773C266.707 111.773 265.8 111.541 265.038 111.077C264.281 110.608 263.696 109.955 263.284 109.116C262.877 108.274 262.673 107.294 262.673 106.176C262.673 105.059 262.877 104.074 263.284 103.222C263.696 102.365 264.269 101.697 265.003 101.219C265.741 100.736 266.603 100.494 267.588 100.494C268.156 100.494 268.717 100.589 269.271 100.778C269.825 100.968 270.329 101.276 270.784 101.702C271.238 102.123 271.601 102.682 271.871 103.378C272.14 104.074 272.275 104.931 272.275 105.949V106.659H263.866V105.21H270.571C270.571 104.595 270.448 104.045 270.202 103.562C269.96 103.08 269.614 102.698 269.165 102.419C268.72 102.14 268.194 102 267.588 102C266.92 102 266.343 102.166 265.855 102.497C265.372 102.824 265 103.25 264.74 103.776C264.479 104.301 264.349 104.865 264.349 105.466V106.432C264.349 107.256 264.491 107.954 264.775 108.527C265.064 109.095 265.464 109.528 265.976 109.827C266.487 110.12 267.081 110.267 267.758 110.267C268.199 110.267 268.596 110.205 268.952 110.082C269.311 109.955 269.622 109.765 269.882 109.514C270.142 109.258 270.344 108.941 270.486 108.562L272.105 109.017C271.934 109.566 271.648 110.049 271.246 110.466C270.843 110.878 270.346 111.2 269.754 111.432C269.162 111.659 268.497 111.773 267.758 111.773ZM279.257 111.773C278.234 111.773 277.354 111.531 276.615 111.048C275.876 110.565 275.308 109.9 274.91 109.053C274.513 108.205 274.314 107.237 274.314 106.148C274.314 105.04 274.517 104.062 274.925 103.214C275.336 102.362 275.909 101.697 276.643 101.219C277.382 100.736 278.244 100.494 279.229 100.494C279.996 100.494 280.687 100.636 281.302 100.92C281.918 101.205 282.422 101.602 282.815 102.114C283.208 102.625 283.452 103.222 283.547 103.903H281.871C281.743 103.406 281.459 102.966 281.018 102.582C280.583 102.194 279.996 102 279.257 102C278.604 102 278.031 102.17 277.538 102.511C277.05 102.847 276.669 103.323 276.395 103.939C276.125 104.55 275.99 105.267 275.99 106.091C275.99 106.934 276.122 107.668 276.388 108.293C276.657 108.918 277.036 109.403 277.524 109.749C278.016 110.094 278.594 110.267 279.257 110.267C279.693 110.267 280.088 110.191 280.443 110.04C280.798 109.888 281.099 109.67 281.345 109.386C281.591 109.102 281.766 108.761 281.871 108.364H283.547C283.452 109.008 283.218 109.588 282.844 110.104C282.474 110.615 281.984 111.022 281.373 111.325C280.767 111.624 280.062 111.773 279.257 111.773ZM290.571 111.773C289.52 111.773 288.613 111.541 287.851 111.077C287.093 110.608 286.508 109.955 286.096 109.116C285.689 108.274 285.486 107.294 285.486 106.176C285.486 105.059 285.689 104.074 286.096 103.222C286.508 102.365 287.081 101.697 287.815 101.219C288.554 100.736 289.416 100.494 290.4 100.494C290.969 100.494 291.53 100.589 292.084 100.778C292.638 100.968 293.142 101.276 293.596 101.702C294.051 102.123 294.413 102.682 294.683 103.378C294.953 104.074 295.088 104.931 295.088 105.949V106.659H286.679V105.21H293.383C293.383 104.595 293.26 104.045 293.014 103.562C292.773 103.08 292.427 102.698 291.977 102.419C291.532 102.14 291.006 102 290.4 102C289.733 102 289.155 102.166 288.667 102.497C288.184 102.824 287.813 103.25 287.552 103.776C287.292 104.301 287.162 104.865 287.162 105.466V106.432C287.162 107.256 287.304 107.954 287.588 108.527C287.877 109.095 288.277 109.528 288.788 109.827C289.3 110.12 289.894 110.267 290.571 110.267C291.011 110.267 291.409 110.205 291.764 110.082C292.124 109.955 292.434 109.765 292.694 109.514C292.955 109.258 293.156 108.941 293.298 108.562L294.917 109.017C294.747 109.566 294.461 110.049 294.058 110.466C293.656 110.878 293.158 111.2 292.567 111.432C291.975 111.659 291.309 111.773 290.571 111.773ZM297.638 111.545V100.636H299.257V102.284H299.371C299.569 101.744 299.929 101.306 300.45 100.97C300.971 100.634 301.558 100.466 302.211 100.466C302.335 100.466 302.488 100.468 302.673 100.473C302.858 100.478 302.997 100.485 303.092 100.494V102.199C303.035 102.185 302.905 102.163 302.702 102.135C302.503 102.102 302.292 102.085 302.069 102.085C301.539 102.085 301.066 102.196 300.649 102.419C300.237 102.637 299.91 102.94 299.669 103.328C299.432 103.712 299.314 104.15 299.314 104.642V111.545H297.638ZM312.38 104.983V111.545H310.704V100.636H312.323V102.341H312.465C312.721 101.787 313.109 101.342 313.63 101.006C314.151 100.665 314.823 100.494 315.647 100.494C316.386 100.494 317.032 100.646 317.586 100.949C318.14 101.247 318.571 101.702 318.879 102.312C319.186 102.919 319.34 103.686 319.34 104.614V111.545H317.664V104.727C317.664 103.87 317.442 103.203 316.997 102.724C316.552 102.241 315.941 102 315.164 102C314.629 102 314.151 102.116 313.73 102.348C313.313 102.58 312.984 102.919 312.742 103.364C312.501 103.809 312.38 104.348 312.38 104.983ZM326.835 111.773C325.85 111.773 324.986 111.538 324.243 111.07C323.504 110.601 322.926 109.945 322.51 109.102C322.098 108.259 321.892 107.275 321.892 106.148C321.892 105.011 322.098 104.019 322.51 103.172C322.926 102.324 323.504 101.666 324.243 101.197C324.986 100.729 325.85 100.494 326.835 100.494C327.82 100.494 328.682 100.729 329.42 101.197C330.164 101.666 330.741 102.324 331.153 103.172C331.57 104.019 331.778 105.011 331.778 106.148C331.778 107.275 331.57 108.259 331.153 109.102C330.741 109.945 330.164 110.601 329.42 111.07C328.682 111.538 327.82 111.773 326.835 111.773ZM326.835 110.267C327.583 110.267 328.199 110.075 328.682 109.692C329.165 109.308 329.522 108.804 329.754 108.179C329.986 107.554 330.102 106.877 330.102 106.148C330.102 105.419 329.986 104.739 329.754 104.109C329.522 103.48 329.165 102.971 328.682 102.582C328.199 102.194 327.583 102 326.835 102C326.087 102 325.471 102.194 324.988 102.582C324.506 102.971 324.148 103.48 323.916 104.109C323.684 104.739 323.568 105.419 323.568 106.148C323.568 106.877 323.684 107.554 323.916 108.179C324.148 108.804 324.506 109.308 324.988 109.692C325.471 110.075 326.087 110.267 326.835 110.267ZM342.064 103.08L340.558 103.506C340.464 103.255 340.324 103.011 340.139 102.774C339.959 102.533 339.713 102.334 339.401 102.178C339.088 102.021 338.688 101.943 338.2 101.943C337.533 101.943 336.977 102.097 336.531 102.405C336.091 102.708 335.871 103.094 335.871 103.562C335.871 103.979 336.022 104.308 336.325 104.55C336.628 104.791 337.102 104.992 337.746 105.153L339.365 105.551C340.341 105.788 341.067 106.15 341.546 106.638C342.024 107.121 342.263 107.743 342.263 108.506C342.263 109.131 342.083 109.689 341.723 110.182C341.368 110.674 340.871 111.062 340.232 111.347C339.593 111.631 338.849 111.773 338.002 111.773C336.889 111.773 335.968 111.531 335.239 111.048C334.51 110.565 334.048 109.86 333.854 108.932L335.445 108.534C335.596 109.121 335.883 109.562 336.304 109.855C336.73 110.149 337.287 110.295 337.973 110.295C338.754 110.295 339.375 110.13 339.834 109.798C340.298 109.462 340.53 109.06 340.53 108.591C340.53 108.212 340.397 107.895 340.132 107.639C339.867 107.379 339.46 107.185 338.911 107.057L337.093 106.631C336.093 106.394 335.36 106.027 334.891 105.53C334.427 105.028 334.195 104.401 334.195 103.648C334.195 103.032 334.368 102.488 334.713 102.014C335.064 101.541 335.539 101.169 336.141 100.899C336.747 100.629 337.433 100.494 338.2 100.494C339.28 100.494 340.128 100.731 340.743 101.205C341.363 101.678 341.804 102.303 342.064 103.08ZM352.513 103.08L351.008 103.506C350.913 103.255 350.773 103.011 350.589 102.774C350.409 102.533 350.162 102.334 349.85 102.178C349.537 102.021 349.137 101.943 348.65 101.943C347.982 101.943 347.426 102.097 346.981 102.405C346.54 102.708 346.32 103.094 346.32 103.562C346.32 103.979 346.472 104.308 346.775 104.55C347.078 104.791 347.551 104.992 348.195 105.153L349.814 105.551C350.79 105.788 351.517 106.15 351.995 106.638C352.473 107.121 352.712 107.743 352.712 108.506C352.712 109.131 352.532 109.689 352.172 110.182C351.817 110.674 351.32 111.062 350.681 111.347C350.042 111.631 349.298 111.773 348.451 111.773C347.338 111.773 346.417 111.531 345.688 111.048C344.959 110.565 344.497 109.86 344.303 108.932L345.894 108.534C346.046 109.121 346.332 109.562 346.753 109.855C347.18 110.149 347.736 110.295 348.422 110.295C349.204 110.295 349.824 110.13 350.283 109.798C350.747 109.462 350.979 109.06 350.979 108.591C350.979 108.212 350.847 107.895 350.581 107.639C350.316 107.379 349.909 107.185 349.36 107.057L347.542 106.631C346.543 106.394 345.809 106.027 345.34 105.53C344.876 105.028 344.644 104.401 344.644 103.648C344.644 103.032 344.817 102.488 345.162 102.014C345.513 101.541 345.989 101.169 346.59 100.899C347.196 100.629 347.883 100.494 348.65 100.494C349.729 100.494 350.577 100.731 351.192 101.205C351.813 101.678 352.253 102.303 352.513 103.08ZM358.445 111.801C357.754 111.801 357.127 111.671 356.563 111.41C356 111.145 355.552 110.764 355.221 110.267C354.89 109.765 354.724 109.159 354.724 108.449C354.724 107.824 354.847 107.317 355.093 106.929C355.339 106.536 355.669 106.228 356.08 106.006C356.492 105.783 356.947 105.617 357.444 105.508C357.946 105.395 358.45 105.305 358.957 105.239C359.62 105.153 360.157 105.089 360.569 105.047C360.986 104.999 361.289 104.921 361.478 104.812C361.672 104.704 361.769 104.514 361.769 104.244V104.187C361.769 103.487 361.578 102.942 361.194 102.554C360.815 102.166 360.24 101.972 359.468 101.972C358.668 101.972 358.041 102.147 357.586 102.497C357.132 102.847 356.812 103.222 356.627 103.619L355.036 103.051C355.32 102.388 355.699 101.872 356.173 101.503C356.651 101.129 357.172 100.868 357.735 100.722C358.303 100.57 358.862 100.494 359.411 100.494C359.762 100.494 360.164 100.537 360.619 100.622C361.078 100.703 361.521 100.871 361.947 101.126C362.378 101.382 362.735 101.768 363.019 102.284C363.303 102.8 363.445 103.491 363.445 104.358V111.545H361.769V110.068H361.684C361.57 110.305 361.381 110.558 361.116 110.828C360.851 111.098 360.498 111.328 360.058 111.517C359.617 111.706 359.08 111.801 358.445 111.801ZM358.701 110.295C359.364 110.295 359.923 110.165 360.377 109.905C360.837 109.644 361.182 109.308 361.414 108.896C361.651 108.484 361.769 108.051 361.769 107.597V106.062C361.698 106.148 361.542 106.226 361.301 106.297C361.064 106.363 360.789 106.422 360.477 106.474C360.169 106.522 359.868 106.564 359.575 106.602C359.286 106.635 359.052 106.664 358.872 106.687C358.436 106.744 358.029 106.837 357.65 106.964C357.276 107.088 356.973 107.275 356.741 107.526C356.514 107.772 356.4 108.108 356.4 108.534C356.4 109.116 356.615 109.557 357.046 109.855C357.482 110.149 358.034 110.295 358.701 110.295ZM110.307 135.773C109.256 135.773 108.349 135.541 107.587 135.077C106.829 134.608 106.245 133.955 105.833 133.116C105.426 132.274 105.222 131.294 105.222 130.176C105.222 129.059 105.426 128.074 105.833 127.222C106.245 126.365 106.818 125.697 107.551 125.219C108.29 124.736 109.152 124.494 110.137 124.494C110.705 124.494 111.266 124.589 111.82 124.778C112.374 124.968 112.878 125.276 113.333 125.702C113.787 126.123 114.15 126.682 114.419 127.378C114.689 128.074 114.824 128.931 114.824 129.949V130.659H106.415V129.21H113.12C113.12 128.595 112.997 128.045 112.75 127.562C112.509 127.08 112.163 126.698 111.713 126.419C111.268 126.14 110.743 126 110.137 126C109.469 126 108.891 126.166 108.404 126.497C107.921 126.824 107.549 127.25 107.289 127.776C107.028 128.301 106.898 128.865 106.898 129.466V130.432C106.898 131.256 107.04 131.954 107.324 132.527C107.613 133.095 108.013 133.528 108.525 133.827C109.036 134.12 109.63 134.267 110.307 134.267C110.748 134.267 111.145 134.205 111.5 134.082C111.86 133.955 112.17 133.765 112.431 133.514C112.691 133.258 112.892 132.941 113.034 132.562L114.654 133.017C114.483 133.566 114.197 134.049 113.794 134.466C113.392 134.878 112.895 135.2 112.303 135.432C111.711 135.659 111.046 135.773 110.307 135.773ZM117.374 135.545V124.636H118.993V126.341H119.135C119.363 125.758 119.73 125.306 120.236 124.984C120.743 124.658 121.351 124.494 122.061 124.494C122.781 124.494 123.38 124.658 123.858 124.984C124.341 125.306 124.718 125.758 124.988 126.341H125.101C125.381 125.777 125.8 125.33 126.358 124.999C126.917 124.662 127.587 124.494 128.368 124.494C129.344 124.494 130.141 124.8 130.762 125.41C131.382 126.017 131.692 126.961 131.692 128.244V135.545H130.016V128.244C130.016 127.439 129.796 126.864 129.355 126.518C128.915 126.173 128.397 126 127.8 126C127.033 126 126.439 126.232 126.017 126.696C125.596 127.155 125.385 127.738 125.385 128.443V135.545H123.681V128.074C123.681 127.454 123.48 126.954 123.077 126.575C122.675 126.192 122.156 126 121.522 126C121.086 126 120.679 126.116 120.3 126.348C119.926 126.58 119.623 126.902 119.391 127.314C119.164 127.721 119.05 128.192 119.05 128.727V135.545H117.374ZM134.757 139.636V124.636H136.376V126.369H136.575C136.698 126.18 136.868 125.938 137.086 125.645C137.309 125.347 137.626 125.081 138.038 124.849C138.455 124.613 139.018 124.494 139.728 124.494C140.647 124.494 141.457 124.724 142.157 125.183C142.858 125.642 143.405 126.294 143.798 127.136C144.191 127.979 144.387 128.973 144.387 130.119C144.387 131.275 144.191 132.276 143.798 133.124C143.405 133.966 142.86 134.62 142.164 135.084C141.468 135.543 140.666 135.773 139.757 135.773C139.056 135.773 138.495 135.657 138.074 135.425C137.652 135.188 137.328 134.92 137.1 134.622C136.873 134.319 136.698 134.068 136.575 133.869H136.433V139.636H134.757ZM136.404 130.091C136.404 130.915 136.525 131.642 136.767 132.271C137.008 132.896 137.361 133.386 137.825 133.741C138.289 134.092 138.857 134.267 139.529 134.267C140.23 134.267 140.815 134.082 141.284 133.713C141.757 133.339 142.112 132.837 142.349 132.207C142.591 131.573 142.711 130.867 142.711 130.091C142.711 129.324 142.593 128.633 142.356 128.017C142.124 127.397 141.771 126.907 141.298 126.547C140.829 126.182 140.24 126 139.529 126C138.848 126 138.275 126.173 137.811 126.518C137.347 126.859 136.996 127.338 136.76 127.953C136.523 128.564 136.404 129.276 136.404 130.091ZM146.944 135.545V124.636H148.564V126.284H148.677C148.876 125.744 149.236 125.306 149.757 124.97C150.278 124.634 150.865 124.466 151.518 124.466C151.641 124.466 151.795 124.468 151.98 124.473C152.164 124.478 152.304 124.485 152.399 124.494V126.199C152.342 126.185 152.212 126.163 152.008 126.135C151.809 126.102 151.599 126.085 151.376 126.085C150.846 126.085 150.372 126.196 149.956 126.419C149.544 126.637 149.217 126.94 148.975 127.328C148.739 127.712 148.62 128.15 148.62 128.642V135.545H146.944ZM158.627 135.773C157.576 135.773 156.67 135.541 155.907 135.077C155.15 134.608 154.565 133.955 154.153 133.116C153.746 132.274 153.542 131.294 153.542 130.176C153.542 129.059 153.746 128.074 154.153 127.222C154.565 126.365 155.138 125.697 155.872 125.219C156.61 124.736 157.472 124.494 158.457 124.494C159.025 124.494 159.586 124.589 160.14 124.778C160.694 124.968 161.199 125.276 161.653 125.702C162.108 126.123 162.47 126.682 162.74 127.378C163.01 128.074 163.145 128.931 163.145 129.949V130.659H154.735V129.21H161.44C161.44 128.595 161.317 128.045 161.071 127.562C160.829 127.08 160.484 126.698 160.034 126.419C159.589 126.14 159.063 126 158.457 126C157.789 126 157.212 126.166 156.724 126.497C156.241 126.824 155.869 127.25 155.609 127.776C155.349 128.301 155.218 128.865 155.218 129.466V130.432C155.218 131.256 155.36 131.954 155.645 132.527C155.933 133.095 156.333 133.528 156.845 133.827C157.356 134.12 157.95 134.267 158.627 134.267C159.068 134.267 159.466 134.205 159.821 134.082C160.181 133.955 160.491 133.765 160.751 133.514C161.011 133.258 161.213 132.941 161.355 132.562L162.974 133.017C162.804 133.566 162.517 134.049 162.115 134.466C161.712 134.878 161.215 135.2 160.623 135.432C160.031 135.659 159.366 135.773 158.627 135.773ZM173.422 127.08L171.916 127.506C171.821 127.255 171.681 127.011 171.497 126.774C171.317 126.533 171.071 126.334 170.758 126.178C170.446 126.021 170.046 125.943 169.558 125.943C168.89 125.943 168.334 126.097 167.889 126.405C167.449 126.708 167.228 127.094 167.228 127.562C167.228 127.979 167.38 128.308 167.683 128.55C167.986 128.791 168.459 128.992 169.103 129.153L170.723 129.551C171.698 129.788 172.425 130.15 172.903 130.638C173.381 131.121 173.62 131.743 173.62 132.506C173.62 133.131 173.44 133.689 173.081 134.182C172.725 134.674 172.228 135.062 171.589 135.347C170.95 135.631 170.207 135.773 169.359 135.773C168.246 135.773 167.325 135.531 166.596 135.048C165.867 134.565 165.405 133.86 165.211 132.932L166.802 132.534C166.954 133.121 167.24 133.562 167.662 133.855C168.088 134.149 168.644 134.295 169.331 134.295C170.112 134.295 170.732 134.13 171.191 133.798C171.655 133.462 171.887 133.06 171.887 132.591C171.887 132.212 171.755 131.895 171.49 131.639C171.225 131.379 170.817 131.185 170.268 131.057L168.45 130.631C167.451 130.394 166.717 130.027 166.248 129.53C165.784 129.028 165.552 128.401 165.552 127.648C165.552 127.032 165.725 126.488 166.071 126.014C166.421 125.541 166.897 125.169 167.498 124.899C168.104 124.629 168.791 124.494 169.558 124.494C170.637 124.494 171.485 124.731 172.1 125.205C172.721 125.678 173.161 126.303 173.422 127.08ZM179.354 135.801C178.662 135.801 178.035 135.671 177.472 135.41C176.908 135.145 176.461 134.764 176.129 134.267C175.798 133.765 175.632 133.159 175.632 132.449C175.632 131.824 175.755 131.317 176.001 130.929C176.248 130.536 176.577 130.228 176.989 130.006C177.401 129.783 177.855 129.617 178.352 129.508C178.854 129.395 179.358 129.305 179.865 129.239C180.528 129.153 181.065 129.089 181.477 129.047C181.894 128.999 182.197 128.921 182.386 128.812C182.58 128.704 182.678 128.514 182.678 128.244V128.187C182.678 127.487 182.486 126.942 182.102 126.554C181.723 126.166 181.148 125.972 180.376 125.972C179.576 125.972 178.949 126.147 178.494 126.497C178.04 126.847 177.72 127.222 177.536 127.619L175.945 127.051C176.229 126.388 176.607 125.872 177.081 125.503C177.559 125.129 178.08 124.868 178.643 124.722C179.212 124.57 179.77 124.494 180.32 124.494C180.67 124.494 181.072 124.537 181.527 124.622C181.986 124.703 182.429 124.871 182.855 125.126C183.286 125.382 183.643 125.768 183.928 126.284C184.212 126.8 184.354 127.491 184.354 128.358V135.545H182.678V134.068H182.592C182.479 134.305 182.289 134.558 182.024 134.828C181.759 135.098 181.406 135.328 180.966 135.517C180.526 135.706 179.988 135.801 179.354 135.801ZM179.609 134.295C180.272 134.295 180.831 134.165 181.286 133.905C181.745 133.644 182.09 133.308 182.322 132.896C182.559 132.484 182.678 132.051 182.678 131.597V130.062C182.607 130.148 182.45 130.226 182.209 130.297C181.972 130.363 181.697 130.422 181.385 130.474C181.077 130.522 180.777 130.564 180.483 130.602C180.194 130.635 179.96 130.664 179.78 130.687C179.344 130.744 178.937 130.837 178.558 130.964C178.184 131.088 177.881 131.275 177.649 131.526C177.422 131.772 177.308 132.108 177.308 132.534C177.308 133.116 177.524 133.557 177.955 133.855C178.39 134.149 178.942 134.295 179.609 134.295ZM197.612 135.773C196.561 135.773 195.654 135.541 194.892 135.077C194.134 134.608 193.549 133.955 193.137 133.116C192.73 132.274 192.527 131.294 192.527 130.176C192.527 129.059 192.73 128.074 193.137 127.222C193.549 126.365 194.122 125.697 194.856 125.219C195.595 124.736 196.457 124.494 197.441 124.494C198.01 124.494 198.571 124.589 199.125 124.778C199.679 124.968 200.183 125.276 200.637 125.702C201.092 126.123 201.454 126.682 201.724 127.378C201.994 128.074 202.129 128.931 202.129 129.949V130.659H193.72V129.21H200.424C200.424 128.595 200.301 128.045 200.055 127.562C199.814 127.08 199.468 126.698 199.018 126.419C198.573 126.14 198.047 126 197.441 126C196.774 126 196.196 126.166 195.708 126.497C195.225 126.824 194.854 127.25 194.593 127.776C194.333 128.301 194.203 128.865 194.203 129.466V130.432C194.203 131.256 194.345 131.954 194.629 132.527C194.918 133.095 195.318 133.528 195.829 133.827C196.341 134.12 196.935 134.267 197.612 134.267C198.052 134.267 198.45 134.205 198.805 134.082C199.165 133.955 199.475 133.765 199.735 133.514C199.996 133.258 200.197 132.941 200.339 132.562L201.958 133.017C201.788 133.566 201.502 134.049 201.099 134.466C200.697 134.878 200.199 135.2 199.608 135.432C199.016 135.659 198.35 135.773 197.612 135.773ZM214.735 135.773C213.751 135.773 212.886 135.538 212.143 135.07C211.404 134.601 210.827 133.945 210.41 133.102C209.998 132.259 209.792 131.275 209.792 130.148C209.792 129.011 209.998 128.019 210.41 127.172C210.827 126.324 211.404 125.666 212.143 125.197C212.886 124.729 213.751 124.494 214.735 124.494C215.72 124.494 216.582 124.729 217.321 125.197C218.064 125.666 218.642 126.324 219.054 127.172C219.47 128.019 219.679 129.011 219.679 130.148C219.679 131.275 219.47 132.259 219.054 133.102C218.642 133.945 218.064 134.601 217.321 135.07C216.582 135.538 215.72 135.773 214.735 135.773ZM214.735 134.267C215.484 134.267 216.099 134.075 216.582 133.692C217.065 133.308 217.422 132.804 217.654 132.179C217.886 131.554 218.002 130.877 218.002 130.148C218.002 129.419 217.886 128.739 217.654 128.109C217.422 127.48 217.065 126.971 216.582 126.582C216.099 126.194 215.484 126 214.735 126C213.987 126 213.372 126.194 212.889 126.582C212.406 126.971 212.048 127.48 211.816 128.109C211.584 128.739 211.468 129.419 211.468 130.148C211.468 130.877 211.584 131.554 211.816 132.179C212.048 132.804 212.406 133.308 212.889 133.692C213.372 134.075 213.987 134.267 214.735 134.267ZM229.964 127.08L228.459 127.506C228.364 127.255 228.224 127.011 228.04 126.774C227.86 126.533 227.614 126.334 227.301 126.178C226.989 126.021 226.589 125.943 226.101 125.943C225.433 125.943 224.877 126.097 224.432 126.405C223.991 126.708 223.771 127.094 223.771 127.562C223.771 127.979 223.923 128.308 224.226 128.55C224.529 128.791 225.002 128.992 225.646 129.153L227.266 129.551C228.241 129.788 228.968 130.15 229.446 130.638C229.924 131.121 230.163 131.743 230.163 132.506C230.163 133.131 229.983 133.689 229.624 134.182C229.268 134.674 228.771 135.062 228.132 135.347C227.493 135.631 226.75 135.773 225.902 135.773C224.789 135.773 223.868 135.531 223.139 135.048C222.41 134.565 221.948 133.86 221.754 132.932L223.345 132.534C223.497 133.121 223.783 133.562 224.205 133.855C224.631 134.149 225.187 134.295 225.874 134.295C226.655 134.295 227.275 134.13 227.734 133.798C228.198 133.462 228.43 133.06 228.43 132.591C228.43 132.212 228.298 131.895 228.033 131.639C227.768 131.379 227.36 131.185 226.811 131.057L224.993 130.631C223.994 130.394 223.26 130.027 222.791 129.53C222.327 129.028 222.095 128.401 222.095 127.648C222.095 127.032 222.268 126.488 222.614 126.014C222.964 125.541 223.44 125.169 224.041 124.899C224.647 124.629 225.334 124.494 226.101 124.494C227.18 124.494 228.028 124.731 228.643 125.205C229.264 125.678 229.704 126.303 229.964 127.08ZM247.232 124.636L243.198 135.545H241.493L237.459 124.636H239.277L242.289 133.33H242.402L245.414 124.636H247.232ZM252.322 135.801C251.631 135.801 251.004 135.671 250.44 135.41C249.877 135.145 249.429 134.764 249.098 134.267C248.767 133.765 248.601 133.159 248.601 132.449C248.601 131.824 248.724 131.317 248.97 130.929C249.216 130.536 249.545 130.228 249.957 130.006C250.369 129.783 250.824 129.617 251.321 129.508C251.823 129.395 252.327 129.305 252.834 129.239C253.497 129.153 254.034 129.089 254.446 129.047C254.863 128.999 255.166 128.921 255.355 128.812C255.549 128.704 255.646 128.514 255.646 128.244V128.187C255.646 127.487 255.455 126.942 255.071 126.554C254.692 126.166 254.117 125.972 253.345 125.972C252.545 125.972 251.918 126.147 251.463 126.497C251.009 126.847 250.689 127.222 250.504 127.619L248.913 127.051C249.197 126.388 249.576 125.872 250.05 125.503C250.528 125.129 251.049 124.868 251.612 124.722C252.18 124.57 252.739 124.494 253.288 124.494C253.639 124.494 254.041 124.537 254.496 124.622C254.955 124.703 255.398 124.871 255.824 125.126C256.255 125.382 256.612 125.768 256.896 126.284C257.18 126.8 257.322 127.491 257.322 128.358V135.545H255.646V134.068H255.561C255.447 134.305 255.258 134.558 254.993 134.828C254.728 135.098 254.375 135.328 253.935 135.517C253.494 135.706 252.957 135.801 252.322 135.801ZM252.578 134.295C253.241 134.295 253.8 134.165 254.254 133.905C254.714 133.644 255.059 133.308 255.291 132.896C255.528 132.484 255.646 132.051 255.646 131.597V130.062C255.575 130.148 255.419 130.226 255.178 130.297C254.941 130.363 254.666 130.422 254.354 130.474C254.046 130.522 253.745 130.564 253.452 130.602C253.163 130.635 252.929 130.664 252.749 130.687C252.313 130.744 251.906 130.837 251.527 130.964C251.153 131.088 250.85 131.275 250.618 131.526C250.391 131.772 250.277 132.108 250.277 132.534C250.277 133.116 250.492 133.557 250.923 133.855C251.359 134.149 251.911 134.295 252.578 134.295ZM262.058 121V135.545H260.382V121H262.058ZM269.56 135.773C268.575 135.773 267.711 135.538 266.967 135.07C266.229 134.601 265.651 133.945 265.234 133.102C264.822 132.259 264.616 131.275 264.616 130.148C264.616 129.011 264.822 128.019 265.234 127.172C265.651 126.324 266.229 125.666 266.967 125.197C267.711 124.729 268.575 124.494 269.56 124.494C270.545 124.494 271.406 124.729 272.145 125.197C272.888 125.666 273.466 126.324 273.878 127.172C274.295 128.019 274.503 129.011 274.503 130.148C274.503 131.275 274.295 132.259 273.878 133.102C273.466 133.945 272.888 134.601 272.145 135.07C271.406 135.538 270.545 135.773 269.56 135.773ZM269.56 134.267C270.308 134.267 270.923 134.075 271.406 133.692C271.889 133.308 272.247 132.804 272.479 132.179C272.711 131.554 272.827 130.877 272.827 130.148C272.827 129.419 272.711 128.739 272.479 128.109C272.247 127.48 271.889 126.971 271.406 126.582C270.923 126.194 270.308 126 269.56 126C268.812 126 268.196 126.194 267.713 126.582C267.23 126.971 266.873 127.48 266.641 128.109C266.409 128.739 266.293 129.419 266.293 130.148C266.293 130.877 266.409 131.554 266.641 132.179C266.873 132.804 267.23 133.308 267.713 133.692C268.196 134.075 268.812 134.267 269.56 134.267ZM277.061 135.545V124.636H278.681V126.284H278.794C278.993 125.744 279.353 125.306 279.874 124.97C280.395 124.634 280.982 124.466 281.635 124.466C281.758 124.466 281.912 124.468 282.097 124.473C282.282 124.478 282.421 124.485 282.516 124.494V126.199C282.459 126.185 282.329 126.163 282.125 126.135C281.926 126.102 281.716 126.085 281.493 126.085C280.963 126.085 280.489 126.196 280.073 126.419C279.661 126.637 279.334 126.94 279.093 127.328C278.856 127.712 278.738 128.15 278.738 128.642V135.545H277.061ZM288.745 135.773C287.694 135.773 286.787 135.541 286.025 135.077C285.267 134.608 284.682 133.955 284.27 133.116C283.863 132.274 283.659 131.294 283.659 130.176C283.659 129.059 283.863 128.074 284.27 127.222C284.682 126.365 285.255 125.697 285.989 125.219C286.728 124.736 287.589 124.494 288.574 124.494C289.142 124.494 289.703 124.589 290.257 124.778C290.811 124.968 291.316 125.276 291.77 125.702C292.225 126.123 292.587 126.682 292.857 127.378C293.127 128.074 293.262 128.931 293.262 129.949V130.659H284.853V129.21H291.557C291.557 128.595 291.434 128.045 291.188 127.562C290.946 127.08 290.601 126.698 290.151 126.419C289.706 126.14 289.18 126 288.574 126C287.907 126 287.329 126.166 286.841 126.497C286.358 126.824 285.987 127.25 285.726 127.776C285.466 128.301 285.336 128.865 285.336 129.466V130.432C285.336 131.256 285.478 131.954 285.762 132.527C286.051 133.095 286.451 133.528 286.962 133.827C287.473 134.12 288.068 134.267 288.745 134.267C289.185 134.267 289.583 134.205 289.938 134.082C290.298 133.955 290.608 133.765 290.868 133.514C291.129 133.258 291.33 132.941 291.472 132.562L293.091 133.017C292.921 133.566 292.634 134.049 292.232 134.466C291.829 134.878 291.332 135.2 290.74 135.432C290.149 135.659 289.483 135.773 288.745 135.773ZM303.539 127.08L302.033 127.506C301.938 127.255 301.799 127.011 301.614 126.774C301.434 126.533 301.188 126.334 300.875 126.178C300.563 126.021 300.163 125.943 299.675 125.943C299.007 125.943 298.451 126.097 298.006 126.405C297.566 126.708 297.346 127.094 297.346 127.562C297.346 127.979 297.497 128.308 297.8 128.55C298.103 128.791 298.577 128.992 299.221 129.153L300.84 129.551C301.815 129.788 302.542 130.15 303.02 130.638C303.498 131.121 303.738 131.743 303.738 132.506C303.738 133.131 303.558 133.689 303.198 134.182C302.843 134.674 302.346 135.062 301.706 135.347C301.067 135.631 300.324 135.773 299.476 135.773C298.364 135.773 297.443 135.531 296.713 135.048C295.984 134.565 295.523 133.86 295.328 132.932L296.919 132.534C297.071 133.121 297.357 133.562 297.779 133.855C298.205 134.149 298.761 134.295 299.448 134.295C300.229 134.295 300.849 134.13 301.309 133.798C301.773 133.462 302.005 133.06 302.005 132.591C302.005 132.212 301.872 131.895 301.607 131.639C301.342 131.379 300.935 131.185 300.385 131.057L298.567 130.631C297.568 130.394 296.834 130.027 296.365 129.53C295.901 129.028 295.669 128.401 295.669 127.648C295.669 127.032 295.842 126.488 296.188 126.014C296.538 125.541 297.014 125.169 297.615 124.899C298.221 124.629 298.908 124.494 299.675 124.494C300.755 124.494 301.602 124.731 302.218 125.205C302.838 125.678 303.278 126.303 303.539 127.08ZM319.329 139.636V133.869H319.187C319.064 134.068 318.888 134.319 318.661 134.622C318.434 134.92 318.11 135.188 317.688 135.425C317.267 135.657 316.706 135.773 316.005 135.773C315.096 135.773 314.293 135.543 313.597 135.084C312.901 134.62 312.357 133.966 311.964 133.124C311.571 132.276 311.374 131.275 311.374 130.119C311.374 128.973 311.571 127.979 311.964 127.136C312.357 126.294 312.904 125.642 313.604 125.183C314.305 124.724 315.115 124.494 316.033 124.494C316.744 124.494 317.305 124.613 317.717 124.849C318.133 125.081 318.451 125.347 318.668 125.645C318.891 125.938 319.064 126.18 319.187 126.369H319.386V124.636H321.005V139.636H319.329ZM316.232 134.267C316.905 134.267 317.473 134.092 317.937 133.741C318.401 133.386 318.754 132.896 318.995 132.271C319.237 131.642 319.357 130.915 319.357 130.091C319.357 129.276 319.239 128.564 319.002 127.953C318.765 127.338 318.415 126.859 317.951 126.518C317.487 126.173 316.914 126 316.232 126C315.522 126 314.93 126.182 314.457 126.547C313.988 126.907 313.635 127.397 313.398 128.017C313.166 128.633 313.05 129.324 313.05 130.091C313.05 130.867 313.169 131.573 313.406 132.207C313.647 132.837 314.002 133.339 314.471 133.713C314.944 134.082 315.531 134.267 316.232 134.267ZM330.948 131.085V124.636H332.624V135.545H330.948V133.699H330.835C330.579 134.253 330.181 134.724 329.641 135.112C329.102 135.496 328.42 135.687 327.596 135.687C326.914 135.687 326.308 135.538 325.778 135.24C325.247 134.937 324.831 134.482 324.528 133.876C324.225 133.266 324.073 132.496 324.073 131.568V124.636H325.749V131.455C325.749 132.25 325.972 132.884 326.417 133.358C326.867 133.831 327.44 134.068 328.136 134.068C328.552 134.068 328.976 133.962 329.407 133.749C329.843 133.535 330.207 133.209 330.501 132.768C330.799 132.328 330.948 131.767 330.948 131.085ZM340.268 135.773C339.217 135.773 338.31 135.541 337.548 135.077C336.79 134.608 336.206 133.955 335.794 133.116C335.386 132.274 335.183 131.294 335.183 130.176C335.183 129.059 335.386 128.074 335.794 127.222C336.206 126.365 336.779 125.697 337.512 125.219C338.251 124.736 339.113 124.494 340.098 124.494C340.666 124.494 341.227 124.589 341.781 124.778C342.335 124.968 342.839 125.276 343.294 125.702C343.748 126.123 344.11 126.682 344.38 127.378C344.65 128.074 344.785 128.931 344.785 129.949V130.659H336.376V129.21H343.081C343.081 128.595 342.958 128.045 342.711 127.562C342.47 127.08 342.124 126.698 341.674 126.419C341.229 126.14 340.704 126 340.098 126C339.43 126 338.852 126.166 338.365 126.497C337.882 126.824 337.51 127.25 337.25 127.776C336.989 128.301 336.859 128.865 336.859 129.466V130.432C336.859 131.256 337.001 131.954 337.285 132.527C337.574 133.095 337.974 133.528 338.485 133.827C338.997 134.12 339.591 134.267 340.268 134.267C340.708 134.267 341.106 134.205 341.461 134.082C341.821 133.955 342.131 133.765 342.392 133.514C342.652 133.258 342.853 132.941 342.995 132.562L344.615 133.017C344.444 133.566 344.158 134.049 343.755 134.466C343.353 134.878 342.856 135.2 342.264 135.432C341.672 135.659 341.007 135.773 340.268 135.773ZM65.4093 159.773C64.3865 159.773 63.5059 159.531 62.7672 159.048C62.0286 158.565 61.4604 157.9 61.0627 157.053C60.665 156.205 60.4661 155.237 60.4661 154.148C60.4661 153.04 60.6697 152.062 61.0769 151.214C61.4888 150.362 62.0617 149.697 62.7956 149.219C63.5343 148.736 64.396 148.494 65.3809 148.494C66.1479 148.494 66.8392 148.636 67.4547 148.92C68.0703 149.205 68.5745 149.602 68.9675 150.114C69.3605 150.625 69.6043 151.222 69.699 151.903H68.0229C67.8951 151.406 67.611 150.966 67.1706 150.582C66.735 150.194 66.1479 150 65.4093 150C64.7559 150 64.1829 150.17 63.6905 150.511C63.2028 150.847 62.8217 151.323 62.5471 151.939C62.2772 152.55 62.1422 153.267 62.1422 154.091C62.1422 154.934 62.2748 155.668 62.54 156.293C62.8098 156.918 63.1886 157.403 63.6763 157.749C64.1687 158.094 64.7464 158.267 65.4093 158.267C65.8449 158.267 66.2402 158.191 66.5953 158.04C66.9505 157.888 67.2511 157.67 67.4973 157.386C67.7435 157.102 67.9187 156.761 68.0229 156.364H69.699C69.6043 157.008 69.37 157.588 68.9959 158.104C68.6266 158.615 68.1365 159.022 67.5257 159.325C66.9197 159.624 66.2142 159.773 65.4093 159.773ZM76.5811 159.773C75.5963 159.773 74.7322 159.538 73.9888 159.07C73.2502 158.601 72.6725 157.945 72.2559 157.102C71.8439 156.259 71.638 155.275 71.638 154.148C71.638 153.011 71.8439 152.019 72.2559 151.172C72.6725 150.324 73.2502 149.666 73.9888 149.197C74.7322 148.729 75.5963 148.494 76.5811 148.494C77.566 148.494 78.4277 148.729 79.1664 149.197C79.9097 149.666 80.4874 150.324 80.8993 151.172C81.316 152.019 81.5243 153.011 81.5243 154.148C81.5243 155.275 81.316 156.259 80.8993 157.102C80.4874 157.945 79.9097 158.601 79.1664 159.07C78.4277 159.538 77.566 159.773 76.5811 159.773ZM76.5811 158.267C77.3292 158.267 77.9448 158.075 78.4277 157.692C78.9107 157.308 79.2682 156.804 79.5002 156.179C79.7322 155.554 79.8482 154.877 79.8482 154.148C79.8482 153.419 79.7322 152.739 79.5002 152.109C79.2682 151.48 78.9107 150.971 78.4277 150.582C77.9448 150.194 77.3292 150 76.5811 150C75.833 150 75.2175 150.194 74.7346 150.582C74.2516 150.971 73.8941 151.48 73.6621 152.109C73.4301 152.739 73.3141 153.419 73.3141 154.148C73.3141 154.877 73.4301 155.554 73.6621 156.179C73.8941 156.804 74.2516 157.308 74.7346 157.692C75.2175 158.075 75.833 158.267 76.5811 158.267ZM84.0829 159.545V148.636H85.7022V150.341H85.8443C86.0716 149.758 86.4385 149.306 86.9451 148.984C87.4518 148.658 88.0602 148.494 88.7704 148.494C89.4901 148.494 90.0891 148.658 90.5673 148.984C91.0502 149.306 91.4267 149.758 91.6966 150.341H91.8102C92.0895 149.777 92.5086 149.33 93.0673 148.999C93.626 148.662 94.296 148.494 95.0772 148.494C96.0526 148.494 96.8504 148.8 97.4707 149.41C98.091 150.017 98.4011 150.961 98.4011 152.244V159.545H96.725V152.244C96.725 151.439 96.5048 150.864 96.0645 150.518C95.6241 150.173 95.1056 150 94.5091 150C93.742 150 93.1478 150.232 92.7264 150.696C92.305 151.155 92.0943 151.738 92.0943 152.443V159.545H90.3897V152.074C90.3897 151.454 90.1885 150.954 89.786 150.575C89.3836 150.192 88.8651 150 88.2306 150C87.795 150 87.3878 150.116 87.0091 150.348C86.635 150.58 86.332 150.902 86.1 151.314C85.8727 151.721 85.7591 152.192 85.7591 152.727V159.545H84.0829ZM101.466 163.636V148.636H103.085V150.369H103.284C103.407 150.18 103.577 149.938 103.795 149.645C104.018 149.347 104.335 149.081 104.747 148.849C105.164 148.613 105.727 148.494 106.437 148.494C107.356 148.494 108.166 148.724 108.866 149.183C109.567 149.642 110.114 150.294 110.507 151.136C110.9 151.979 111.096 152.973 111.096 154.119C111.096 155.275 110.9 156.276 110.507 157.124C110.114 157.966 109.569 158.62 108.873 159.084C108.177 159.543 107.375 159.773 106.466 159.773C105.765 159.773 105.204 159.657 104.782 159.425C104.361 159.188 104.037 158.92 103.809 158.622C103.582 158.319 103.407 158.068 103.284 157.869H103.142V163.636H101.466ZM103.113 154.091C103.113 154.915 103.234 155.642 103.476 156.271C103.717 156.896 104.07 157.386 104.534 157.741C104.998 158.092 105.566 158.267 106.238 158.267C106.939 158.267 107.524 158.082 107.993 157.713C108.466 157.339 108.821 156.837 109.058 156.207C109.3 155.573 109.42 154.867 109.42 154.091C109.42 153.324 109.302 152.633 109.065 152.017C108.833 151.397 108.48 150.907 108.007 150.547C107.538 150.182 106.949 150 106.238 150C105.557 150 104.984 150.173 104.52 150.518C104.056 150.859 103.705 151.338 103.469 151.953C103.232 152.564 103.113 153.276 103.113 154.091ZM116.863 159.801C116.172 159.801 115.545 159.671 114.981 159.41C114.418 159.145 113.97 158.764 113.639 158.267C113.308 157.765 113.142 157.159 113.142 156.449C113.142 155.824 113.265 155.317 113.511 154.929C113.757 154.536 114.086 154.228 114.498 154.006C114.91 153.783 115.365 153.617 115.862 153.508C116.364 153.395 116.868 153.305 117.375 153.239C118.038 153.153 118.575 153.089 118.987 153.047C119.404 152.999 119.707 152.921 119.896 152.812C120.09 152.704 120.187 152.514 120.187 152.244V152.187C120.187 151.487 119.996 150.942 119.612 150.554C119.233 150.166 118.658 149.972 117.886 149.972C117.086 149.972 116.459 150.147 116.004 150.497C115.55 150.847 115.23 151.222 115.045 151.619L113.454 151.051C113.738 150.388 114.117 149.872 114.591 149.503C115.069 149.129 115.59 148.868 116.153 148.722C116.721 148.57 117.28 148.494 117.829 148.494C118.18 148.494 118.582 148.537 119.037 148.622C119.496 148.703 119.939 148.871 120.365 149.126C120.796 149.382 121.153 149.768 121.437 150.284C121.721 150.8 121.863 151.491 121.863 152.358V159.545H120.187V158.068H120.102C119.988 158.305 119.799 158.558 119.534 158.828C119.269 159.098 118.916 159.328 118.476 159.517C118.035 159.706 117.498 159.801 116.863 159.801ZM117.119 158.295C117.782 158.295 118.341 158.165 118.795 157.905C119.255 157.644 119.6 157.308 119.832 156.896C120.069 156.484 120.187 156.051 120.187 155.597V154.062C120.116 154.148 119.96 154.226 119.719 154.297C119.482 154.363 119.207 154.422 118.895 154.474C118.587 154.522 118.286 154.564 117.993 154.602C117.704 154.635 117.47 154.664 117.29 154.687C116.854 154.744 116.447 154.837 116.068 154.964C115.694 155.088 115.391 155.275 115.159 155.526C114.932 155.772 114.818 156.108 114.818 156.534C114.818 157.116 115.033 157.557 115.464 157.855C115.9 158.149 116.452 158.295 117.119 158.295ZM124.923 159.545V148.636H126.542V150.284H126.656C126.855 149.744 127.214 149.306 127.735 148.97C128.256 148.634 128.843 148.466 129.497 148.466C129.62 148.466 129.774 148.468 129.958 148.473C130.143 148.478 130.283 148.485 130.377 148.494V150.199C130.32 150.185 130.19 150.163 129.987 150.135C129.788 150.102 129.577 150.085 129.355 150.085C128.824 150.085 128.351 150.196 127.934 150.419C127.522 150.637 127.195 150.94 126.954 151.328C126.717 151.712 126.599 152.15 126.599 152.642V159.545H124.923ZM137.792 148.636V150.057H132.139V148.636H137.792ZM133.786 146.023H135.463V156.42C135.463 156.894 135.531 157.249 135.669 157.486C135.811 157.718 135.99 157.874 136.208 157.955C136.431 158.03 136.665 158.068 136.911 158.068C137.096 158.068 137.248 158.059 137.366 158.04C137.484 158.016 137.579 157.997 137.65 157.983L137.991 159.489C137.877 159.531 137.719 159.574 137.515 159.616C137.311 159.664 137.053 159.687 136.741 159.687C136.267 159.687 135.803 159.586 135.349 159.382C134.899 159.178 134.525 158.868 134.227 158.452C133.933 158.035 133.786 157.509 133.786 156.875V146.023ZM140.313 159.545V148.636H141.99V159.545H140.313ZM141.166 146.818C140.839 146.818 140.557 146.707 140.32 146.484C140.088 146.262 139.972 145.994 139.972 145.682C139.972 145.369 140.088 145.102 140.32 144.879C140.557 144.657 140.839 144.545 141.166 144.545C141.492 144.545 141.772 144.657 142.004 144.879C142.24 145.102 142.359 145.369 142.359 145.682C142.359 145.994 142.24 146.262 142.004 146.484C141.772 146.707 141.492 146.818 141.166 146.818ZM146.736 145V159.545H145.059V145H146.736ZM151.482 152.983V159.545H149.806V145H151.482V150.341H151.624C151.879 149.777 152.263 149.33 152.774 148.999C153.29 148.662 153.977 148.494 154.834 148.494C155.577 148.494 156.228 148.643 156.787 148.942C157.346 149.235 157.779 149.687 158.087 150.298C158.399 150.904 158.556 151.676 158.556 152.614V159.545H156.879V152.727C156.879 151.861 156.655 151.191 156.205 150.717C155.76 150.239 155.142 150 154.351 150C153.802 150 153.309 150.116 152.874 150.348C152.443 150.58 152.102 150.919 151.851 151.364C151.605 151.809 151.482 152.348 151.482 152.983ZM164.832 159.801C164.141 159.801 163.514 159.671 162.95 159.41C162.387 159.145 161.939 158.764 161.608 158.267C161.276 157.765 161.111 157.159 161.111 156.449C161.111 155.824 161.234 155.317 161.48 154.929C161.726 154.536 162.055 154.228 162.467 154.006C162.879 153.783 163.334 153.617 163.831 153.508C164.333 153.395 164.837 153.305 165.344 153.239C166.006 153.153 166.544 153.089 166.956 153.047C167.372 152.999 167.675 152.921 167.865 152.812C168.059 152.704 168.156 152.514 168.156 152.244V152.187C168.156 151.487 167.964 150.942 167.581 150.554C167.202 150.166 166.627 149.972 165.855 149.972C165.055 149.972 164.427 150.147 163.973 150.497C163.518 150.847 163.199 151.222 163.014 151.619L161.423 151.051C161.707 150.388 162.086 149.872 162.559 149.503C163.038 149.129 163.559 148.868 164.122 148.722C164.69 148.57 165.249 148.494 165.798 148.494C166.148 148.494 166.551 148.537 167.006 148.622C167.465 148.703 167.907 148.871 168.334 149.126C168.765 149.382 169.122 149.768 169.406 150.284C169.69 150.8 169.832 151.491 169.832 152.358V159.545H168.156V158.068H168.071C167.957 158.305 167.768 158.558 167.503 158.828C167.238 159.098 166.885 159.328 166.444 159.517C166.004 159.706 165.467 159.801 164.832 159.801ZM165.088 158.295C165.751 158.295 166.309 158.165 166.764 157.905C167.223 157.644 167.569 157.308 167.801 156.896C168.038 156.484 168.156 156.051 168.156 155.597V154.062C168.085 154.148 167.929 154.226 167.687 154.297C167.451 154.363 167.176 154.422 166.863 154.474C166.556 154.522 166.255 154.564 165.961 154.602C165.673 154.635 165.438 154.664 165.258 154.687C164.823 154.744 164.416 154.837 164.037 154.964C163.663 155.088 163.36 155.275 163.128 155.526C162.9 155.772 162.787 156.108 162.787 156.534C162.787 157.116 163.002 157.557 163.433 157.855C163.869 158.149 164.42 158.295 165.088 158.295ZM172.892 159.545V148.636H174.511V150.341H174.653C174.88 149.758 175.247 149.306 175.754 148.984C176.26 148.658 176.869 148.494 177.579 148.494C178.299 148.494 178.898 148.658 179.376 148.984C179.859 149.306 180.235 149.758 180.505 150.341H180.619C180.898 149.777 181.317 149.33 181.876 148.999C182.435 148.662 183.105 148.494 183.886 148.494C184.861 148.494 185.659 148.8 186.279 149.41C186.9 150.017 187.21 150.961 187.21 152.244V159.545H185.534V152.244C185.534 151.439 185.313 150.864 184.873 150.518C184.433 150.173 183.914 150 183.318 150C182.551 150 181.956 150.232 181.535 150.696C181.114 151.155 180.903 151.738 180.903 152.443V159.545H179.198V152.074C179.198 151.454 178.997 150.954 178.595 150.575C178.192 150.192 177.674 150 177.039 150C176.604 150 176.196 150.116 175.818 150.348C175.444 150.58 175.141 150.902 174.909 151.314C174.681 151.721 174.568 152.192 174.568 152.727V159.545H172.892ZM194.706 159.773C193.721 159.773 192.857 159.538 192.114 159.07C191.375 158.601 190.798 157.945 190.381 157.102C189.969 156.259 189.763 155.275 189.763 154.148C189.763 153.011 189.969 152.019 190.381 151.172C190.798 150.324 191.375 149.666 192.114 149.197C192.857 148.729 193.721 148.494 194.706 148.494C195.691 148.494 196.553 148.729 197.291 149.197C198.035 149.666 198.612 150.324 199.024 151.172C199.441 152.019 199.649 153.011 199.649 154.148C199.649 155.275 199.441 156.259 199.024 157.102C198.612 157.945 198.035 158.601 197.291 159.07C196.553 159.538 195.691 159.773 194.706 159.773ZM194.706 158.267C195.454 158.267 196.07 158.075 196.553 157.692C197.036 157.308 197.393 156.804 197.625 156.179C197.857 155.554 197.973 154.877 197.973 154.148C197.973 153.419 197.857 152.739 197.625 152.109C197.393 151.48 197.036 150.971 196.553 150.582C196.07 150.194 195.454 150 194.706 150C193.958 150 193.343 150.194 192.86 150.582C192.377 150.971 192.019 151.48 191.787 152.109C191.555 152.739 191.439 153.419 191.439 154.148C191.439 154.877 191.555 155.554 191.787 156.179C192.019 156.804 192.377 157.308 192.86 157.692C193.343 158.075 193.958 158.267 194.706 158.267ZM209.935 151.08L208.43 151.506C208.335 151.255 208.195 151.011 208.01 150.774C207.831 150.533 207.584 150.334 207.272 150.178C206.959 150.021 206.559 149.943 206.072 149.943C205.404 149.943 204.848 150.097 204.403 150.405C203.962 150.708 203.742 151.094 203.742 151.562C203.742 151.979 203.894 152.308 204.197 152.55C204.5 152.791 204.973 152.992 205.617 153.153L207.236 153.551C208.212 153.788 208.939 154.15 209.417 154.638C209.895 155.121 210.134 155.743 210.134 156.506C210.134 157.131 209.954 157.689 209.594 158.182C209.239 158.674 208.742 159.062 208.103 159.347C207.464 159.631 206.72 159.773 205.873 159.773C204.76 159.773 203.839 159.531 203.11 159.048C202.381 158.565 201.919 157.86 201.725 156.932L203.316 156.534C203.467 157.121 203.754 157.562 204.175 157.855C204.601 158.149 205.158 158.295 205.844 158.295C206.626 158.295 207.246 158.13 207.705 157.798C208.169 157.462 208.401 157.06 208.401 156.591C208.401 156.212 208.269 155.895 208.003 155.639C207.738 155.379 207.331 155.185 206.782 155.057L204.964 154.631C203.965 154.394 203.231 154.027 202.762 153.53C202.298 153.028 202.066 152.401 202.066 151.648C202.066 151.032 202.239 150.488 202.584 150.014C202.935 149.541 203.411 149.169 204.012 148.899C204.618 148.629 205.305 148.494 206.072 148.494C207.151 148.494 207.999 148.731 208.614 149.205C209.234 149.678 209.675 150.303 209.935 151.08ZM213.879 159.659C213.528 159.659 213.228 159.534 212.977 159.283C212.726 159.032 212.6 158.731 212.6 158.381C212.6 158.03 212.726 157.73 212.977 157.479C213.228 157.228 213.528 157.102 213.879 157.102C214.229 157.102 214.53 157.228 214.781 157.479C215.032 157.73 215.157 158.03 215.157 158.381C215.157 158.613 215.098 158.826 214.98 159.02C214.866 159.214 214.712 159.37 214.518 159.489C214.329 159.602 214.115 159.659 213.879 159.659ZM224.614 145L228.932 157.244H229.102L233.421 145H235.267L229.926 159.545H228.108L222.767 145H224.614ZM240.864 159.773C239.813 159.773 238.906 159.541 238.144 159.077C237.386 158.608 236.801 157.955 236.389 157.116C235.982 156.274 235.779 155.294 235.779 154.176C235.779 153.059 235.982 152.074 236.389 151.222C236.801 150.365 237.374 149.697 238.108 149.219C238.847 148.736 239.709 148.494 240.693 148.494C241.262 148.494 241.823 148.589 242.377 148.778C242.931 148.968 243.435 149.276 243.889 149.702C244.344 150.123 244.706 150.682 244.976 151.378C245.246 152.074 245.381 152.931 245.381 153.949V154.659H236.972V153.21H243.676C243.676 152.595 243.553 152.045 243.307 151.562C243.066 151.08 242.72 150.698 242.27 150.419C241.825 150.14 241.299 150 240.693 150C240.026 150 239.448 150.166 238.96 150.497C238.477 150.824 238.106 151.25 237.845 151.776C237.585 152.301 237.455 152.865 237.455 153.466V154.432C237.455 155.256 237.597 155.954 237.881 156.527C238.17 157.095 238.57 157.528 239.081 157.827C239.593 158.12 240.187 158.267 240.864 158.267C241.304 158.267 241.702 158.205 242.057 158.082C242.417 157.955 242.727 157.765 242.987 157.514C243.248 157.258 243.449 156.941 243.591 156.562L245.21 157.017C245.04 157.566 244.753 158.049 244.351 158.466C243.949 158.878 243.451 159.2 242.86 159.432C242.268 159.659 241.602 159.773 240.864 159.773ZM249.607 152.983V159.545H247.931V148.636H249.55V150.341H249.692C249.948 149.787 250.336 149.342 250.857 149.006C251.378 148.665 252.05 148.494 252.874 148.494C253.612 148.494 254.259 148.646 254.813 148.949C255.367 149.247 255.798 149.702 256.105 150.312C256.413 150.919 256.567 151.686 256.567 152.614V159.545H254.891V152.727C254.891 151.87 254.668 151.203 254.223 150.724C253.778 150.241 253.167 150 252.391 150C251.856 150 251.378 150.116 250.956 150.348C250.539 150.58 250.21 150.919 249.969 151.364C249.727 151.809 249.607 152.348 249.607 152.983ZM261.306 152.983V159.545H259.63V145H261.306V150.341H261.448C261.704 149.777 262.087 149.33 262.599 148.999C263.115 148.662 263.801 148.494 264.658 148.494C265.402 148.494 266.053 148.643 266.611 148.942C267.17 149.235 267.603 149.687 267.911 150.298C268.224 150.904 268.38 151.676 268.38 152.614V159.545H266.704V152.727C266.704 151.861 266.479 151.191 266.029 150.717C265.584 150.239 264.966 150 264.175 150C263.626 150 263.134 150.116 262.698 150.348C262.267 150.58 261.926 150.919 261.675 151.364C261.429 151.809 261.306 152.348 261.306 152.983ZM274.656 159.801C273.965 159.801 273.338 159.671 272.774 159.41C272.211 159.145 271.763 158.764 271.432 158.267C271.101 157.765 270.935 157.159 270.935 156.449C270.935 155.824 271.058 155.317 271.304 154.929C271.55 154.536 271.879 154.228 272.291 154.006C272.703 153.783 273.158 153.617 273.655 153.508C274.157 153.395 274.661 153.305 275.168 153.239C275.831 153.153 276.368 153.089 276.78 153.047C277.197 152.999 277.5 152.921 277.689 152.812C277.883 152.704 277.98 152.514 277.98 152.244V152.187C277.98 151.487 277.789 150.942 277.405 150.554C277.026 150.166 276.451 149.972 275.679 149.972C274.879 149.972 274.252 150.147 273.797 150.497C273.343 150.847 273.023 151.222 272.838 151.619L271.247 151.051C271.531 150.388 271.91 149.872 272.384 149.503C272.862 149.129 273.383 148.868 273.946 148.722C274.514 148.57 275.073 148.494 275.622 148.494C275.973 148.494 276.375 148.537 276.83 148.622C277.289 148.703 277.732 148.871 278.158 149.126C278.589 149.382 278.946 149.768 279.23 150.284C279.514 150.8 279.656 151.491 279.656 152.358V159.545H277.98V158.068H277.895C277.781 158.305 277.592 158.558 277.327 158.828C277.062 159.098 276.709 159.328 276.269 159.517C275.828 159.706 275.291 159.801 274.656 159.801ZM274.912 158.295C275.575 158.295 276.134 158.165 276.588 157.905C277.048 157.644 277.393 157.308 277.625 156.896C277.862 156.484 277.98 156.051 277.98 155.597V154.062C277.909 154.148 277.753 154.226 277.512 154.297C277.275 154.363 277 154.422 276.688 154.474C276.38 154.522 276.079 154.564 275.786 154.602C275.497 154.635 275.262 154.664 275.083 154.687C274.647 154.744 274.24 154.837 273.861 154.964C273.487 155.088 273.184 155.275 272.952 155.526C272.725 155.772 272.611 156.108 272.611 156.534C272.611 157.116 272.826 157.557 273.257 157.855C273.693 158.149 274.244 158.295 274.912 158.295ZM293.199 148.636V150.057H287.318V148.636H293.199ZM289.079 159.545V147.131C289.079 146.506 289.226 145.985 289.52 145.568C289.813 145.151 290.194 144.839 290.663 144.631C291.132 144.422 291.627 144.318 292.148 144.318C292.559 144.318 292.896 144.351 293.156 144.418C293.416 144.484 293.611 144.545 293.738 144.602L293.256 146.051C293.17 146.023 293.052 145.987 292.9 145.945C292.754 145.902 292.559 145.881 292.318 145.881C291.764 145.881 291.364 146.02 291.118 146.3C290.876 146.579 290.756 146.989 290.756 147.528V159.545H289.079ZM298.445 159.801C297.754 159.801 297.127 159.671 296.563 159.41C296 159.145 295.552 158.764 295.221 158.267C294.89 157.765 294.724 157.159 294.724 156.449C294.724 155.824 294.847 155.317 295.093 154.929C295.339 154.536 295.669 154.228 296.08 154.006C296.492 153.783 296.947 153.617 297.444 153.508C297.946 153.395 298.45 153.305 298.957 153.239C299.62 153.153 300.157 153.089 300.569 153.047C300.986 152.999 301.289 152.921 301.478 152.812C301.672 152.704 301.769 152.514 301.769 152.244V152.187C301.769 151.487 301.578 150.942 301.194 150.554C300.815 150.166 300.24 149.972 299.468 149.972C298.668 149.972 298.041 150.147 297.586 150.497C297.132 150.847 296.812 151.222 296.627 151.619L295.036 151.051C295.32 150.388 295.699 149.872 296.173 149.503C296.651 149.129 297.172 148.868 297.735 148.722C298.303 148.57 298.862 148.494 299.411 148.494C299.762 148.494 300.164 148.537 300.619 148.622C301.078 148.703 301.521 148.871 301.947 149.126C302.378 149.382 302.735 149.768 303.019 150.284C303.303 150.8 303.445 151.491 303.445 152.358V159.545H301.769V158.068H301.684C301.57 158.305 301.381 158.558 301.116 158.828C300.851 159.098 300.498 159.328 300.058 159.517C299.617 159.706 299.08 159.801 298.445 159.801ZM298.701 158.295C299.364 158.295 299.923 158.165 300.377 157.905C300.837 157.644 301.182 157.308 301.414 156.896C301.651 156.484 301.769 156.051 301.769 155.597V154.062C301.698 154.148 301.542 154.226 301.301 154.297C301.064 154.363 300.789 154.422 300.477 154.474C300.169 154.522 299.868 154.564 299.575 154.602C299.286 154.635 299.052 154.664 298.872 154.687C298.436 154.744 298.029 154.837 297.65 154.964C297.276 155.088 296.973 155.275 296.741 155.526C296.514 155.772 296.4 156.108 296.4 156.534C296.4 157.116 296.615 157.557 297.046 157.855C297.482 158.149 298.034 158.295 298.701 158.295ZM306.192 159.545V158.267L312.385 150.312V150.199H306.391V148.636H314.545V149.972L308.522 157.869V157.983H314.743V159.545H306.192ZM321.586 159.773C320.535 159.773 319.629 159.541 318.866 159.077C318.109 158.608 317.524 157.955 317.112 157.116C316.705 156.274 316.501 155.294 316.501 154.176C316.501 153.059 316.705 152.074 317.112 151.222C317.524 150.365 318.097 149.697 318.831 149.219C319.569 148.736 320.431 148.494 321.416 148.494C321.984 148.494 322.545 148.589 323.099 148.778C323.653 148.968 324.157 149.276 324.612 149.702C325.067 150.123 325.429 150.682 325.699 151.378C325.969 152.074 326.104 152.931 326.104 153.949V154.659H317.694V153.21H324.399C324.399 152.595 324.276 152.045 324.03 151.562C323.788 151.08 323.443 150.698 322.993 150.419C322.548 150.14 322.022 150 321.416 150C320.748 150 320.171 150.166 319.683 150.497C319.2 150.824 318.828 151.25 318.568 151.776C318.308 152.301 318.177 152.865 318.177 153.466V154.432C318.177 155.256 318.319 155.954 318.604 156.527C318.892 157.095 319.292 157.528 319.804 157.827C320.315 158.12 320.909 158.267 321.586 158.267C322.027 158.267 322.425 158.205 322.78 158.082C323.14 157.955 323.45 157.765 323.71 157.514C323.97 157.258 324.172 156.941 324.314 156.562L325.933 157.017C325.763 157.566 325.476 158.049 325.074 158.466C324.671 158.878 324.174 159.2 323.582 159.432C322.99 159.659 322.325 159.773 321.586 159.773ZM328.653 159.545V148.636H330.273V150.284H330.386C330.585 149.744 330.945 149.306 331.466 148.97C331.987 148.634 332.574 148.466 333.227 148.466C333.35 148.466 333.504 148.468 333.689 148.473C333.873 148.478 334.013 148.485 334.108 148.494V150.199C334.051 150.185 333.921 150.163 333.717 150.135C333.518 150.102 333.308 150.085 333.085 150.085C332.555 150.085 332.081 150.196 331.665 150.419C331.253 150.637 330.926 150.94 330.684 151.328C330.448 151.712 330.329 152.15 330.329 152.642V159.545H328.653ZM341.72 163.636V148.636H343.339V150.369H343.538C343.661 150.18 343.831 149.938 344.049 149.645C344.272 149.347 344.589 149.081 345.001 148.849C345.418 148.613 345.981 148.494 346.691 148.494C347.61 148.494 348.419 148.724 349.12 149.183C349.821 149.642 350.368 150.294 350.761 151.136C351.154 151.979 351.35 152.973 351.35 154.119C351.35 155.275 351.154 156.276 350.761 157.124C350.368 157.966 349.823 158.62 349.127 159.084C348.431 159.543 347.629 159.773 346.72 159.773C346.019 159.773 345.458 159.657 345.036 159.425C344.615 159.188 344.291 158.92 344.063 158.622C343.836 158.319 343.661 158.068 343.538 157.869H343.396V163.636H341.72ZM343.367 154.091C343.367 154.915 343.488 155.642 343.73 156.271C343.971 156.896 344.324 157.386 344.788 157.741C345.252 158.092 345.82 158.267 346.492 158.267C347.193 158.267 347.778 158.082 348.247 157.713C348.72 157.339 349.075 156.837 349.312 156.207C349.553 155.573 349.674 154.867 349.674 154.091C349.674 153.324 349.556 152.633 349.319 152.017C349.087 151.397 348.734 150.907 348.261 150.547C347.792 150.182 347.203 150 346.492 150C345.811 150 345.238 150.173 344.774 150.518C344.31 150.859 343.959 151.338 343.722 151.953C343.486 152.564 343.367 153.276 343.367 154.091ZM357.117 159.801C356.426 159.801 355.799 159.671 355.235 159.41C354.672 159.145 354.224 158.764 353.893 158.267C353.561 157.765 353.396 157.159 353.396 156.449C353.396 155.824 353.519 155.317 353.765 154.929C354.011 154.536 354.34 154.228 354.752 154.006C355.164 153.783 355.619 153.617 356.116 153.508C356.618 153.395 357.122 153.305 357.629 153.239C358.292 153.153 358.829 153.089 359.241 153.047C359.658 152.999 359.961 152.921 360.15 152.812C360.344 152.704 360.441 152.514 360.441 152.244V152.187C360.441 151.487 360.249 150.942 359.866 150.554C359.487 150.166 358.912 149.972 358.14 149.972C357.34 149.972 356.713 150.147 356.258 150.497C355.803 150.847 355.484 151.222 355.299 151.619L353.708 151.051C353.992 150.388 354.371 149.872 354.845 149.503C355.323 149.129 355.844 148.868 356.407 148.722C356.975 148.57 357.534 148.494 358.083 148.494C358.434 148.494 358.836 148.537 359.291 148.622C359.75 148.703 360.193 148.871 360.619 149.126C361.05 149.382 361.407 149.768 361.691 150.284C361.975 150.8 362.117 151.491 362.117 152.358V159.545H360.441V158.068H360.356C360.242 158.305 360.053 158.558 359.788 158.828C359.523 159.098 359.17 159.328 358.73 159.517C358.289 159.706 357.752 159.801 357.117 159.801ZM357.373 158.295C358.036 158.295 358.595 158.165 359.049 157.905C359.508 157.644 359.854 157.308 360.086 156.896C360.323 156.484 360.441 156.051 360.441 155.597V154.062C360.37 154.148 360.214 154.226 359.972 154.297C359.736 154.363 359.461 154.422 359.149 154.474C358.841 154.522 358.54 154.564 358.247 154.602C357.958 154.635 357.723 154.664 357.544 154.687C357.108 154.744 356.701 154.837 356.322 154.964C355.948 155.088 355.645 155.275 355.413 155.526C355.186 155.772 355.072 156.108 355.072 156.534C355.072 157.116 355.287 157.557 355.718 157.855C356.154 158.149 356.705 158.295 357.373 158.295ZM365.177 159.545V148.636H366.796V150.284H366.91C367.108 149.744 367.468 149.306 367.989 148.97C368.51 148.634 369.097 148.466 369.751 148.466C369.874 148.466 370.028 148.468 370.212 148.473C370.397 148.478 370.537 148.485 370.631 148.494V150.199C370.574 150.185 370.444 150.163 370.241 150.135C370.042 150.102 369.831 150.085 369.608 150.085C369.078 150.085 368.605 150.196 368.188 150.419C367.776 150.637 367.449 150.94 367.208 151.328C366.971 151.712 366.853 152.15 366.853 152.642V159.545H365.177ZM378.046 148.636V150.057H372.393V148.636H378.046ZM374.04 146.023H375.716V156.42C375.716 156.894 375.785 157.249 375.922 157.486C376.064 157.718 376.244 157.874 376.462 157.955C376.685 158.03 376.919 158.068 377.165 158.068C377.35 158.068 377.501 158.059 377.62 158.04C377.738 158.016 377.833 157.997 377.904 157.983L378.245 159.489C378.131 159.531 377.973 159.574 377.769 159.616C377.565 159.664 377.307 159.687 376.995 159.687C376.521 159.687 376.057 159.586 375.603 159.382C375.153 159.178 374.779 158.868 374.481 158.452C374.187 158.035 374.04 157.509 374.04 156.875V146.023ZM385.024 159.773C383.973 159.773 383.066 159.541 382.304 159.077C381.546 158.608 380.961 157.955 380.55 157.116C380.142 156.274 379.939 155.294 379.939 154.176C379.939 153.059 380.142 152.074 380.55 151.222C380.961 150.365 381.534 149.697 382.268 149.219C383.007 148.736 383.869 148.494 384.854 148.494C385.422 148.494 385.983 148.589 386.537 148.778C387.091 148.968 387.595 149.276 388.05 149.702C388.504 150.123 388.866 150.682 389.136 151.378C389.406 152.074 389.541 152.931 389.541 153.949V154.659H381.132V153.21H387.836C387.836 152.595 387.713 152.045 387.467 151.562C387.226 151.08 386.88 150.698 386.43 150.419C385.985 150.14 385.46 150 384.854 150C384.186 150 383.608 150.166 383.121 150.497C382.638 150.824 382.266 151.25 382.006 151.776C381.745 152.301 381.615 152.865 381.615 153.466V154.432C381.615 155.256 381.757 155.954 382.041 156.527C382.33 157.095 382.73 157.528 383.241 157.827C383.753 158.12 384.347 158.267 385.024 158.267C385.464 158.267 385.862 158.205 386.217 158.082C386.577 157.955 386.887 157.765 387.148 157.514C387.408 157.258 387.609 156.941 387.751 156.562L389.371 157.017C389.2 157.566 388.914 158.049 388.511 158.466C388.109 158.878 387.612 159.2 387.02 159.432C386.428 159.659 385.763 159.773 385.024 159.773ZM162.196 183.773C161.287 183.773 160.485 183.543 159.789 183.084C159.093 182.62 158.548 181.966 158.155 181.124C157.762 180.276 157.566 179.275 157.566 178.119C157.566 176.973 157.762 175.979 158.155 175.136C158.548 174.294 159.095 173.642 159.796 173.183C160.497 172.724 161.306 172.494 162.225 172.494C162.935 172.494 163.496 172.613 163.908 172.849C164.325 173.081 164.642 173.347 164.86 173.645C165.082 173.938 165.255 174.18 165.378 174.369H165.52V169H167.196V183.545H165.577V181.869H165.378C165.255 182.068 165.08 182.319 164.853 182.622C164.625 182.92 164.301 183.188 163.88 183.425C163.458 183.657 162.897 183.773 162.196 183.773ZM162.424 182.267C163.096 182.267 163.664 182.092 164.128 181.741C164.592 181.386 164.945 180.896 165.186 180.271C165.428 179.642 165.549 178.915 165.549 178.091C165.549 177.276 165.43 176.564 165.194 175.953C164.957 175.338 164.606 174.859 164.142 174.518C163.678 174.173 163.105 174 162.424 174C161.713 174 161.122 174.182 160.648 174.547C160.179 174.907 159.827 175.397 159.59 176.017C159.358 176.633 159.242 177.324 159.242 178.091C159.242 178.867 159.36 179.573 159.597 180.207C159.838 180.837 160.194 181.339 160.662 181.713C161.136 182.082 161.723 182.267 162.424 182.267ZM175.073 183.773C174.022 183.773 173.115 183.541 172.353 183.077C171.595 182.608 171.01 181.955 170.598 181.116C170.191 180.274 169.988 179.294 169.988 178.176C169.988 177.059 170.191 176.074 170.598 175.222C171.01 174.365 171.583 173.697 172.317 173.219C173.056 172.736 173.917 172.494 174.902 172.494C175.471 172.494 176.032 172.589 176.586 172.778C177.14 172.968 177.644 173.276 178.098 173.702C178.553 174.123 178.915 174.682 179.185 175.378C179.455 176.074 179.59 176.931 179.59 177.949V178.659H171.181V177.21H177.885C177.885 176.595 177.762 176.045 177.516 175.562C177.275 175.08 176.929 174.698 176.479 174.419C176.034 174.14 175.508 174 174.902 174C174.235 174 173.657 174.166 173.169 174.497C172.686 174.824 172.315 175.25 172.054 175.776C171.794 176.301 171.664 176.865 171.664 177.466V178.432C171.664 179.256 171.806 179.954 172.09 180.527C172.379 181.095 172.779 181.528 173.29 181.827C173.801 182.12 174.396 182.267 175.073 182.267C175.513 182.267 175.911 182.205 176.266 182.082C176.626 181.955 176.936 181.765 177.196 181.514C177.457 181.258 177.658 180.941 177.8 180.562L179.419 181.017C179.249 181.566 178.962 182.049 178.56 182.466C178.158 182.878 177.66 183.2 177.069 183.432C176.477 183.659 175.811 183.773 175.073 183.773ZM189.867 175.08L188.361 175.506C188.266 175.255 188.127 175.011 187.942 174.774C187.762 174.533 187.516 174.334 187.203 174.178C186.891 174.021 186.491 173.943 186.003 173.943C185.336 173.943 184.779 174.097 184.334 174.405C183.894 174.708 183.674 175.094 183.674 175.562C183.674 175.979 183.825 176.308 184.128 176.55C184.431 176.791 184.905 176.992 185.549 177.153L187.168 177.551C188.143 177.788 188.87 178.15 189.348 178.638C189.827 179.121 190.066 179.743 190.066 180.506C190.066 181.131 189.886 181.689 189.526 182.182C189.171 182.674 188.674 183.062 188.034 183.347C187.395 183.631 186.652 183.773 185.804 183.773C184.692 183.773 183.771 183.531 183.042 183.048C182.312 182.565 181.851 181.86 181.657 180.932L183.248 180.534C183.399 181.121 183.685 181.562 184.107 181.855C184.533 182.149 185.089 182.295 185.776 182.295C186.557 182.295 187.177 182.13 187.637 181.798C188.101 181.462 188.333 181.06 188.333 180.591C188.333 180.212 188.2 179.895 187.935 179.639C187.67 179.379 187.263 179.185 186.713 179.057L184.895 178.631C183.896 178.394 183.162 178.027 182.694 177.53C182.23 177.028 181.998 176.401 181.998 175.648C181.998 175.032 182.17 174.488 182.516 174.014C182.866 173.541 183.342 173.169 183.944 172.899C184.55 172.629 185.236 172.494 186.003 172.494C187.083 172.494 187.93 172.731 188.546 173.205C189.166 173.678 189.606 174.303 189.867 175.08ZM200.316 175.08L198.81 175.506C198.716 175.255 198.576 175.011 198.391 174.774C198.211 174.533 197.965 174.334 197.653 174.178C197.34 174.021 196.94 173.943 196.452 173.943C195.785 173.943 195.228 174.097 194.783 174.405C194.343 174.708 194.123 175.094 194.123 175.562C194.123 175.979 194.274 176.308 194.577 176.55C194.88 176.791 195.354 176.992 195.998 177.153L197.617 177.551C198.593 177.788 199.319 178.15 199.798 178.638C200.276 179.121 200.515 179.743 200.515 180.506C200.515 181.131 200.335 181.689 199.975 182.182C199.62 182.674 199.123 183.062 198.484 183.347C197.844 183.631 197.101 183.773 196.254 183.773C195.141 183.773 194.22 183.531 193.491 183.048C192.762 182.565 192.3 181.86 192.106 180.932L193.697 180.534C193.848 181.121 194.135 181.562 194.556 181.855C194.982 182.149 195.539 182.295 196.225 182.295C197.006 182.295 197.627 182.13 198.086 181.798C198.55 181.462 198.782 181.06 198.782 180.591C198.782 180.212 198.649 179.895 198.384 179.639C198.119 179.379 197.712 179.185 197.163 179.057L195.344 178.631C194.345 178.394 193.612 178.027 193.143 177.53C192.679 177.028 192.447 176.401 192.447 175.648C192.447 175.032 192.62 174.488 192.965 174.014C193.316 173.541 193.791 173.169 194.393 172.899C194.999 172.629 195.685 172.494 196.452 172.494C197.532 172.494 198.379 172.731 198.995 173.205C199.615 173.678 200.056 174.303 200.316 175.08ZM206.248 183.801C205.557 183.801 204.93 183.671 204.366 183.41C203.803 183.145 203.355 182.764 203.024 182.267C202.692 181.765 202.527 181.159 202.527 180.449C202.527 179.824 202.65 179.317 202.896 178.929C203.142 178.536 203.471 178.228 203.883 178.006C204.295 177.783 204.75 177.617 205.247 177.508C205.749 177.395 206.253 177.305 206.76 177.239C207.422 177.153 207.96 177.089 208.372 177.047C208.788 176.999 209.092 176.921 209.281 176.812C209.475 176.704 209.572 176.514 209.572 176.244V176.187C209.572 175.487 209.38 174.942 208.997 174.554C208.618 174.166 208.043 173.972 207.271 173.972C206.471 173.972 205.843 174.147 205.389 174.497C204.934 174.847 204.615 175.222 204.43 175.619L202.839 175.051C203.123 174.388 203.502 173.872 203.975 173.503C204.454 173.129 204.975 172.868 205.538 172.722C206.106 172.57 206.665 172.494 207.214 172.494C207.565 172.494 207.967 172.537 208.422 172.622C208.881 172.703 209.324 172.871 209.75 173.126C210.181 173.382 210.538 173.768 210.822 174.284C211.106 174.8 211.248 175.491 211.248 176.358V183.545H209.572V182.068H209.487C209.373 182.305 209.184 182.558 208.919 182.828C208.654 183.098 208.301 183.328 207.86 183.517C207.42 183.706 206.883 183.801 206.248 183.801ZM206.504 182.295C207.167 182.295 207.725 182.165 208.18 181.905C208.639 181.644 208.985 181.308 209.217 180.896C209.454 180.484 209.572 180.051 209.572 179.597V178.062C209.501 178.148 209.345 178.226 209.103 178.297C208.867 178.363 208.592 178.422 208.279 178.474C207.972 178.522 207.671 178.564 207.377 178.602C207.089 178.635 206.854 178.664 206.674 178.687C206.239 178.744 205.832 178.837 205.453 178.964C205.079 179.088 204.776 179.275 204.544 179.526C204.316 179.772 204.203 180.108 204.203 180.534C204.203 181.116 204.418 181.557 204.849 181.855C205.285 182.149 205.836 182.295 206.504 182.295ZM221.609 176.983V183.545H219.933V169H221.609V174.341H221.751C222.006 173.777 222.39 173.33 222.901 172.999C223.417 172.662 224.104 172.494 224.961 172.494C225.704 172.494 226.355 172.643 226.914 172.942C227.473 173.235 227.906 173.687 228.214 174.298C228.526 174.904 228.683 175.676 228.683 176.614V183.545H227.006V176.727C227.006 175.861 226.781 175.191 226.332 174.717C225.887 174.239 225.269 174 224.478 174C223.929 174 223.436 174.116 223.001 174.348C222.57 174.58 222.229 174.919 221.978 175.364C221.732 175.809 221.609 176.348 221.609 176.983ZM231.749 183.545V172.636H233.425V183.545H231.749ZM232.601 170.818C232.275 170.818 231.993 170.707 231.756 170.484C231.524 170.262 231.408 169.994 231.408 169.682C231.408 169.369 231.524 169.102 231.756 168.879C231.993 168.657 232.275 168.545 232.601 168.545C232.928 168.545 233.207 168.657 233.439 168.879C233.676 169.102 233.794 169.369 233.794 169.682C233.794 169.994 233.676 170.262 233.439 170.484C233.207 170.707 232.928 170.818 232.601 170.818ZM244.222 175.08L242.717 175.506C242.622 175.255 242.482 175.011 242.298 174.774C242.118 174.533 241.871 174.334 241.559 174.178C241.246 174.021 240.846 173.943 240.359 173.943C239.691 173.943 239.135 174.097 238.69 174.405C238.249 174.708 238.029 175.094 238.029 175.562C238.029 175.979 238.181 176.308 238.484 176.55C238.787 176.791 239.26 176.992 239.904 177.153L241.523 177.551C242.499 177.788 243.226 178.15 243.704 178.638C244.182 179.121 244.421 179.743 244.421 180.506C244.421 181.131 244.241 181.689 243.881 182.182C243.526 182.674 243.029 183.062 242.39 183.347C241.751 183.631 241.007 183.773 240.16 183.773C239.047 183.773 238.126 183.531 237.397 183.048C236.668 182.565 236.206 181.86 236.012 180.932L237.603 180.534C237.754 181.121 238.041 181.562 238.462 181.855C238.888 182.149 239.445 182.295 240.131 182.295C240.913 182.295 241.533 182.13 241.992 181.798C242.456 181.462 242.688 181.06 242.688 180.591C242.688 180.212 242.556 179.895 242.29 179.639C242.025 179.379 241.618 179.185 241.069 179.057L239.251 178.631C238.252 178.394 237.518 178.027 237.049 177.53C236.585 177.028 236.353 176.401 236.353 175.648C236.353 175.032 236.526 174.488 236.871 174.014C237.222 173.541 237.698 173.169 238.299 172.899C238.905 172.629 239.592 172.494 240.359 172.494C241.438 172.494 242.286 172.731 242.901 173.205C243.522 173.678 243.962 174.303 244.222 175.08ZM251.689 172.636V174.057H246.035V172.636H251.689ZM247.683 170.023H249.359V180.42C249.359 180.894 249.428 181.249 249.565 181.486C249.707 181.718 249.887 181.874 250.105 181.955C250.327 182.03 250.562 182.068 250.808 182.068C250.993 182.068 251.144 182.059 251.262 182.04C251.381 182.016 251.475 181.997 251.547 181.983L251.887 183.489C251.774 183.531 251.615 183.574 251.412 183.616C251.208 183.664 250.95 183.687 250.637 183.687C250.164 183.687 249.7 183.586 249.245 183.382C248.796 183.178 248.422 182.868 248.123 182.452C247.83 182.035 247.683 181.509 247.683 180.875V170.023ZM258.525 183.773C257.54 183.773 256.676 183.538 255.932 183.07C255.194 182.601 254.616 181.945 254.199 181.102C253.787 180.259 253.581 179.275 253.581 178.148C253.581 177.011 253.787 176.019 254.199 175.172C254.616 174.324 255.194 173.666 255.932 173.197C256.676 172.729 257.54 172.494 258.525 172.494C259.509 172.494 260.371 172.729 261.11 173.197C261.853 173.666 262.431 174.324 262.843 175.172C263.259 176.019 263.468 177.011 263.468 178.148C263.468 179.275 263.259 180.259 262.843 181.102C262.431 181.945 261.853 182.601 261.11 183.07C260.371 183.538 259.509 183.773 258.525 183.773ZM258.525 182.267C259.273 182.267 259.888 182.075 260.371 181.692C260.854 181.308 261.212 180.804 261.444 180.179C261.676 179.554 261.792 178.877 261.792 178.148C261.792 177.419 261.676 176.739 261.444 176.109C261.212 175.48 260.854 174.971 260.371 174.582C259.888 174.194 259.273 174 258.525 174C257.776 174 257.161 174.194 256.678 174.582C256.195 174.971 255.837 175.48 255.605 176.109C255.373 176.739 255.257 177.419 255.257 178.148C255.257 178.877 255.373 179.554 255.605 180.179C255.837 180.804 256.195 181.308 256.678 181.692C257.161 182.075 257.776 182.267 258.525 182.267ZM257.757 171.159L259.49 167.864H261.451L259.235 171.159H257.757ZM266.026 183.545V172.636H267.646V174.284H267.759C267.958 173.744 268.318 173.306 268.839 172.97C269.36 172.634 269.947 172.466 270.6 172.466C270.723 172.466 270.877 172.468 271.062 172.473C271.246 172.478 271.386 172.485 271.481 172.494V174.199C271.424 174.185 271.294 174.163 271.09 174.135C270.891 174.102 270.681 174.085 270.458 174.085C269.928 174.085 269.454 174.196 269.038 174.419C268.626 174.637 268.299 174.94 268.058 175.328C267.821 175.712 267.702 176.15 267.702 176.642V183.545H266.026ZM273.468 183.545V172.636H275.144V183.545H273.468ZM274.32 170.818C273.993 170.818 273.712 170.707 273.475 170.484C273.243 170.262 273.127 169.994 273.127 169.682C273.127 169.369 273.243 169.102 273.475 168.879C273.712 168.657 273.993 168.545 274.32 168.545C274.647 168.545 274.926 168.657 275.158 168.879C275.395 169.102 275.513 169.369 275.513 169.682C275.513 169.994 275.395 170.262 275.158 170.484C274.926 170.707 274.647 170.818 274.32 170.818ZM281.424 183.801C280.733 183.801 280.105 183.671 279.542 183.41C278.978 183.145 278.531 182.764 278.2 182.267C277.868 181.765 277.702 181.159 277.702 180.449C277.702 179.824 277.826 179.317 278.072 178.929C278.318 178.536 278.647 178.228 279.059 178.006C279.471 177.783 279.925 177.617 280.423 177.508C280.924 177.395 281.429 177.305 281.935 177.239C282.598 177.153 283.136 177.089 283.548 177.047C283.964 176.999 284.267 176.921 284.457 176.812C284.651 176.704 284.748 176.514 284.748 176.244V176.187C284.748 175.487 284.556 174.942 284.173 174.554C283.794 174.166 283.219 173.972 282.447 173.972C281.647 173.972 281.019 174.147 280.565 174.497C280.11 174.847 279.79 175.222 279.606 175.619L278.015 175.051C278.299 174.388 278.678 173.872 279.151 173.503C279.629 173.129 280.15 172.868 280.714 172.722C281.282 172.57 281.841 172.494 282.39 172.494C282.74 172.494 283.143 172.537 283.597 172.622C284.057 172.703 284.499 172.871 284.925 173.126C285.356 173.382 285.714 173.768 285.998 174.284C286.282 174.8 286.424 175.491 286.424 176.358V183.545H284.748V182.068H284.663C284.549 182.305 284.36 182.558 284.094 182.828C283.829 183.098 283.477 183.328 283.036 183.517C282.596 183.706 282.058 183.801 281.424 183.801ZM281.68 182.295C282.343 182.295 282.901 182.165 283.356 181.905C283.815 181.644 284.161 181.308 284.393 180.896C284.629 180.484 284.748 180.051 284.748 179.597V178.062C284.677 178.148 284.521 178.226 284.279 178.297C284.042 178.363 283.768 178.422 283.455 178.474C283.147 178.522 282.847 178.564 282.553 178.602C282.264 178.635 282.03 178.664 281.85 178.687C281.415 178.744 281.007 178.837 280.629 178.964C280.254 179.088 279.951 179.275 279.719 179.526C279.492 179.772 279.379 180.108 279.379 180.534C279.379 181.116 279.594 181.557 280.025 181.855C280.46 182.149 281.012 182.295 281.68 182.295ZM290.705 183.659C290.355 183.659 290.054 183.534 289.803 183.283C289.552 183.032 289.426 182.731 289.426 182.381C289.426 182.03 289.552 181.73 289.803 181.479C290.054 181.228 290.355 181.102 290.705 181.102C291.055 181.102 291.356 181.228 291.607 181.479C291.858 181.73 291.983 182.03 291.983 182.381C291.983 182.613 291.924 182.826 291.806 183.02C291.692 183.214 291.538 183.37 291.344 183.489C291.155 183.602 290.942 183.659 290.705 183.659Z" fill="#363524"/>
</svg>
