<svg width="50" height="50" viewBox="0 0 50 50" fill="none" xmlns="http://www.w3.org/2000/svg">
<path d="M25.1594 6.24683H25.4375C28.0063 6.2562 41.0219 6.34995 44.5312 7.2937C45.5922 7.58173 46.5589 8.14315 47.3349 8.92185C48.1108 9.70056 48.6688 10.6693 48.9531 11.7312C49.2687 12.9187 49.4906 14.4906 49.6406 16.1125L49.6719 16.4375L49.7406 17.25L49.7656 17.575C49.9688 20.4312 49.9937 23.1062 49.9969 23.6906V23.925C49.9937 24.5312 49.9656 27.3874 49.7406 30.3624L49.7156 30.6906L49.6875 31.0156C49.5312 32.8031 49.3 34.5781 48.9531 35.8843C48.6688 36.9463 48.1108 37.915 47.3349 38.6937C46.5589 39.4724 45.5922 40.0338 44.5312 40.3218C40.9062 41.2968 27.1281 41.3656 25.2188 41.3687H24.775C23.8094 41.3687 19.8156 41.35 15.6281 41.2062L15.0969 41.1875L14.825 41.1749L14.2906 41.1531L13.7562 41.1312C10.2875 40.9781 6.98438 40.7312 5.4625 40.3187C4.40196 40.0309 3.43547 39.47 2.65953 38.6919C1.8836 37.9137 1.32539 36.9457 1.04062 35.8843C0.69375 34.5812 0.4625 32.8031 0.30625 31.0156L0.28125 30.6875L0.25625 30.3624C0.101136 28.245 0.0156729 26.123 0 24L0 23.6156C0.00625 22.9437 0.03125 20.6218 0.2 18.0593L0.221875 17.7375L0.23125 17.575L0.25625 17.25L0.325 16.4375L0.35625 16.1125C0.50625 14.4906 0.728125 12.9156 1.04375 11.7312C1.32803 10.6693 1.88604 9.70056 2.662 8.92185C3.43796 8.14315 4.40471 7.58173 5.46562 7.2937C6.9875 6.88745 10.2906 6.63745 13.7594 6.4812L14.2906 6.45933L14.8281 6.44058L15.0969 6.4312L15.6312 6.40933C18.6053 6.31371 21.5806 6.26058 24.5562 6.24995L25.1594 6.24683ZM20 16.2781V31.3343L32.9906 23.8093L20 16.2781Z" fill="#5000E0"/>
</svg>
