<svg width="30" height="30" viewBox="0 0 30 30" fill="none" xmlns="http://www.w3.org/2000/svg">
<path d="M14.85 11.425C16.45 11.5 16.8625 12.8625 16.8875 13.5H19.125C19.025 11.025 17.2625 9.5125 14.8125 9.5125C12.05 9.5125 10 11.25 10 15.175C10 17.6 11.1625 20.475 14.8 20.475C17.575 20.475 19.0625 18.4125 19.1 16.7875H16.8625C16.825 17.525 16.3 18.5125 14.825 18.5875C13.1875 18.5375 12.5 17.2625 12.5 15.175C12.5 11.5625 14.1 11.45 14.85 11.425ZM15 2.5C8.1 2.5 2.5 8.1 2.5 15C2.5 21.9 8.1 27.5 15 27.5C21.9 27.5 27.5 21.9 27.5 15C27.5 8.1 21.9 2.5 15 2.5ZM15 25C9.4875 25 5 20.5125 5 15C5 9.4875 9.4875 5 15 5C20.5125 5 25 9.4875 25 15C25 20.5125 20.5125 25 15 25Z" fill="black"/>
</svg>
