<svg width="260" height="60" viewBox="0 0 260 60" fill="none" xmlns="http://www.w3.org/2000/svg">
<g clip-path="url(#clip0_256_252)">
<path d="M25 5C18.2156 5 17.3625 5.03125 14.6969 5.15C12.0312 5.275 10.2156 5.69375 8.625 6.3125C6.95576 6.93852 5.44419 7.92312 4.19688 9.19688C2.92312 10.4442 1.93852 11.9558 1.3125 13.625C0.69375 15.2125 0.271875 17.0312 0.15 19.6875C0.03125 22.3594 0 23.2094 0 30.0031C0 36.7906 0.03125 37.6406 0.15 40.3063C0.275 42.9688 0.69375 44.7844 1.3125 46.375C1.95312 48.0187 2.80625 49.4125 4.19688 50.8031C5.58438 52.1937 6.97813 53.05 8.62187 53.6875C10.2156 54.3063 12.0281 54.7281 14.6906 54.85C17.3594 54.9688 18.2094 55 25 55C31.7906 55 32.6375 54.9688 35.3063 54.85C37.9656 54.725 39.7875 54.3063 41.3781 53.6875C43.0462 53.0611 44.5567 52.0765 45.8031 50.8031C47.1937 49.4125 48.0469 48.0187 48.6875 46.375C49.3031 44.7844 49.725 42.9688 49.85 40.3063C49.9688 37.6406 50 36.7906 50 30C50 23.2094 49.9688 22.3594 49.85 19.6906C49.725 17.0313 49.3031 15.2125 48.6875 13.625C48.0615 11.9558 47.0769 10.4442 45.8031 9.19688C44.5558 7.92312 43.0442 6.93852 41.375 6.3125C39.7812 5.69375 37.9625 5.27187 35.3031 5.15C32.6344 5.03125 31.7875 5 24.9937 5H25ZM22.7594 9.50625H25.0031C31.6781 9.50625 32.4688 9.52813 35.1031 9.65C37.5406 9.75938 38.8656 10.1687 39.7469 10.5094C40.9125 10.9625 41.7469 11.5062 42.6219 12.3812C43.4969 13.2563 44.0375 14.0875 44.4906 15.2563C44.8344 16.1344 45.2406 17.4594 45.35 19.8969C45.4719 22.5312 45.4969 23.3219 45.4969 29.9937C45.4969 36.6656 45.4719 37.4594 45.35 40.0938C45.2406 42.5312 44.8313 43.8531 44.4906 44.7344C44.087 45.8184 43.4476 46.7993 42.6187 47.6063C41.7437 48.4813 40.9125 49.0219 39.7438 49.475C38.8688 49.8188 37.5438 50.225 35.1031 50.3375C32.4688 50.4563 31.6781 50.4844 25.0031 50.4844C18.3281 50.4844 17.5344 50.4563 14.9 50.3375C12.4625 50.225 11.1406 49.8188 10.2594 49.475C9.17448 49.0727 8.19249 48.4344 7.38437 47.6063C6.55398 46.7988 5.91353 45.8167 5.50938 44.7313C5.16875 43.8531 4.75938 42.5281 4.65 40.0906C4.53125 37.4562 4.50625 36.6656 4.50625 29.9875C4.50625 23.3094 4.53125 22.525 4.65 19.8906C4.7625 17.4531 5.16875 16.1281 5.5125 15.2469C5.96563 14.0813 6.50937 13.2469 7.38437 12.3719C8.25937 11.4969 9.09062 10.9563 10.2594 10.5031C11.1406 10.1594 12.4625 9.75313 14.9 9.64062C17.2063 9.53438 18.1 9.50313 22.7594 9.5V9.50625ZM38.3469 13.6562C37.9529 13.6562 37.5628 13.7338 37.1988 13.8846C36.8348 14.0354 36.5041 14.2564 36.2256 14.5349C35.947 14.8135 35.726 15.1442 35.5752 15.5082C35.4245 15.8722 35.3469 16.2623 35.3469 16.6562C35.3469 17.0502 35.4245 17.4403 35.5752 17.8043C35.726 18.1683 35.947 18.499 36.2256 18.7776C36.5041 19.0561 36.8348 19.2771 37.1988 19.4279C37.5628 19.5787 37.9529 19.6562 38.3469 19.6562C39.1425 19.6562 39.9056 19.3402 40.4682 18.7776C41.0308 18.215 41.3469 17.4519 41.3469 16.6562C41.3469 15.8606 41.0308 15.0975 40.4682 14.5349C39.9056 13.9723 39.1425 13.6562 38.3469 13.6562ZM25.0031 17.1625C23.3002 17.1359 21.609 17.4484 20.0281 18.0817C18.4471 18.715 17.0079 19.6565 15.7942 20.8513C14.5806 22.0462 13.6168 23.4705 12.9589 25.0414C12.301 26.6124 11.9622 28.2985 11.9622 30.0016C11.9622 31.7047 12.301 33.3908 12.9589 34.9617C13.6168 36.5326 14.5806 37.957 15.7942 39.1518C17.0079 40.3467 18.4471 41.2881 20.0281 41.9214C21.609 42.5547 23.3002 42.8672 25.0031 42.8406C28.3736 42.788 31.5882 41.4122 33.9531 39.0102C36.3179 36.6081 37.6434 33.3724 37.6434 30.0016C37.6434 26.6307 36.3179 23.395 33.9531 20.993C31.5882 18.5909 28.3736 17.2151 25.0031 17.1625ZM25.0031 21.6656C26.0976 21.6656 27.1814 21.8812 28.1926 22.3C29.2037 22.7189 30.1225 23.3328 30.8964 24.1067C31.6703 24.8806 32.2842 25.7994 32.7031 26.8106C33.1219 27.8217 33.3375 28.9055 33.3375 30C33.3375 31.0945 33.1219 32.1783 32.7031 33.1894C32.2842 34.2006 31.6703 35.1194 30.8964 35.8933C30.1225 36.6672 29.2037 37.2811 28.1926 37.7C27.1814 38.1188 26.0976 38.3344 25.0031 38.3344C22.7927 38.3344 20.6728 37.4563 19.1098 35.8933C17.5468 34.3303 16.6688 32.2104 16.6688 30C16.6688 27.7896 17.5468 25.6697 19.1098 24.1067C20.6728 22.5437 22.7927 21.6656 25.0031 21.6656Z" fill="#5000E0"/>
</g>
<path d="M125.159 11.2468H125.438C128.006 11.2562 141.022 11.35 144.531 12.2937C145.592 12.5817 146.559 13.1431 147.335 13.9219C148.111 14.7006 148.669 15.6693 148.953 16.7312C149.269 17.9187 149.491 19.4906 149.641 21.1125L149.672 21.4375L149.741 22.25L149.766 22.575C149.969 25.4312 149.994 28.1062 149.997 28.6906V28.925C149.994 29.5312 149.966 32.3874 149.741 35.3624L149.716 35.6906L149.688 36.0156C149.531 37.8031 149.3 39.5781 148.953 40.8843C148.669 41.9463 148.111 42.915 147.335 43.6937C146.559 44.4724 145.592 45.0338 144.531 45.3218C140.906 46.2968 127.128 46.3656 125.219 46.3687H124.775C123.809 46.3687 119.816 46.35 115.628 46.2062L115.097 46.1875L114.825 46.1749L114.291 46.1531L113.756 46.1312C110.287 45.9781 106.984 45.7312 105.463 45.3187C104.402 45.0309 103.435 44.47 102.66 43.6919C101.884 42.9137 101.325 41.9457 101.041 40.8843C100.694 39.5812 100.463 37.8031 100.306 36.0156L100.281 35.6875L100.256 35.3624C100.101 33.245 100.016 31.123 100 29L100 28.6156C100.006 27.9437 100.031 25.6218 100.2 23.0593L100.222 22.7375L100.231 22.575L100.256 22.25L100.325 21.4375L100.356 21.1125C100.506 19.4906 100.728 17.9156 101.044 16.7312C101.328 15.6693 101.886 14.7006 102.662 13.9219C103.438 13.1431 104.405 12.5817 105.466 12.2937C106.987 11.8875 110.291 11.6375 113.759 11.4812L114.291 11.4593L114.828 11.4406L115.097 11.4312L115.631 11.4093C118.605 11.3137 121.581 11.2606 124.556 11.25L125.159 11.2468ZM120 21.2781V36.3343L132.991 28.8093L120 21.2781Z" fill="#5000E0"/>
<path d="M230 5.09998C216.25 5.09998 205 16.325 205 30.15C205 42.65 214.15 53.025 226.1 54.9V37.4H219.75V30.15H226.1V24.625C226.1 18.35 229.825 14.9 235.55 14.9C238.275 14.9 241.125 15.375 241.125 15.375V21.55H237.975C234.875 21.55 233.9 23.475 233.9 25.45V30.15H240.85L239.725 37.4H233.9V54.9C239.791 53.9696 245.156 50.9638 249.025 46.4251C252.894 41.8865 255.013 36.1141 255 30.15C255 16.325 243.75 5.09998 230 5.09998Z" fill="#5000E0"/>
<defs>
<clipPath id="clip0_256_252">
<rect width="50" height="50" fill="white" transform="translate(0 5)"/>
</clipPath>
</defs>
</svg>
